<svg xmlns="http://www.w3.org/2000/svg" viewBox="120 545 460 410" preserveAspectRatio="xMidYMid meet">
  <path fill="#050deb" fill-rule="evenodd" d="M 165.101562 670.425781 L 269.164062 670.425781 C 267.0625 671.875 265.019531 673.410156 263.039062 675.023438 C 261.058594 676.636719 259.144531 678.324219 257.296875 680.089844 C 255.449219 681.855469 253.675781 683.691406 251.976562 685.601562 C 250.273438 687.507812 248.648438 689.476562 247.105469 691.511719 C 245.558594 693.546875 244.097656 695.640625 242.71875 697.792969 C 241.339844 699.941406 240.050781 702.144531 238.84375 704.398438 C 237.640625 706.652344 236.527344 708.949219 235.503906 711.292969 C 234.484375 713.632812 233.554688 716.011719 232.722656 718.425781 C 231.890625 720.84375 231.152344 723.289062 230.511719 725.761719 C 229.875 728.234375 229.332031 730.730469 228.890625 733.246094 C 228.449219 735.765625 228.109375 738.292969 227.871094 740.839844 C 227.628906 743.382812 227.488281 745.929688 227.449219 748.484375 C 227.410156 751.039062 227.476562 753.59375 227.640625 756.144531 C 227.804688 758.691406 228.066406 761.230469 228.433594 763.761719 C 228.796875 766.289062 229.261719 768.800781 229.828125 771.292969 C 230.394531 773.785156 231.054688 776.25 231.816406 778.691406 C 232.574219 781.128906 233.429688 783.535156 234.382812 785.90625 C 235.332031 788.277344 236.375 790.609375 237.511719 792.898438 C 238.648438 795.183594 239.875 797.425781 241.1875 799.617188 C 242.5 801.808594 243.898438 803.945312 245.382812 806.027344 C 246.863281 808.105469 248.429688 810.125 250.070312 812.082031 C 251.714844 814.039062 253.433594 815.925781 255.226562 817.746094 C 257.019531 819.566406 258.882812 821.3125 260.8125 822.988281 C 262.742188 824.660156 264.738281 826.253906 266.796875 827.769531 C 268.855469 829.28125 270.96875 830.710938 273.140625 832.058594 C 275.3125 833.40625 277.535156 834.664062 279.804688 835.835938 C 282.078125 837.003906 284.390625 838.085938 286.746094 839.070312 C 289.105469 840.058594 291.496094 840.949219 293.925781 841.746094 C 296.351562 842.542969 298.808594 843.242188 301.289062 843.847656 C 303.773438 844.449219 306.277344 844.953125 308.800781 845.355469 C 311.324219 845.757812 313.859375 846.0625 316.40625 846.265625 C 318.953125 846.46875 321.503906 846.570312 324.058594 846.570312 L 473.21875 846.570312 L 473.074219 846.785156 C 474.335938 846.878906 475.59375 847 476.851562 847.152344 C 478.105469 847.304688 479.355469 847.488281 480.605469 847.699219 C 481.851562 847.910156 483.09375 848.148438 484.328125 848.417969 C 485.5625 848.6875 486.792969 848.984375 488.015625 849.308594 C 489.238281 849.636719 490.449219 849.992188 491.65625 850.375 C 492.859375 850.757812 494.054688 851.167969 495.242188 851.609375 C 496.429688 852.046875 497.601562 852.511719 498.765625 853.007812 C 499.933594 853.5 501.082031 854.023438 502.222656 854.570312 C 503.363281 855.117188 504.488281 855.691406 505.601562 856.292969 C 506.714844 856.894531 507.8125 857.519531 508.898438 858.171875 C 509.980469 858.824219 511.050781 859.503906 512.101562 860.203125 C 513.152344 860.90625 514.1875 861.632812 515.207031 862.382812 C 516.222656 863.132812 517.222656 863.90625 518.207031 864.703125 C 519.1875 865.5 520.148438 866.320312 521.09375 867.164062 C 522.035156 868.007812 522.960938 868.871094 523.863281 869.753906 C 524.765625 870.640625 525.648438 871.546875 526.507812 872.472656 C 527.367188 873.402344 528.207031 874.347656 529.023438 875.3125 C 529.839844 876.277344 530.632812 877.261719 531.402344 878.265625 C 532.175781 879.269531 532.921875 880.289062 533.644531 881.328125 C 534.367188 882.367188 535.0625 883.421875 535.738281 884.492188 C 536.410156 885.5625 537.058594 886.648438 537.679688 887.75 C 538.300781 888.847656 538.898438 889.964844 539.46875 891.09375 C 540.039062 892.222656 540.582031 893.363281 541.097656 894.519531 C 541.617188 895.671875 542.105469 896.835938 542.566406 898.015625 C 543.03125 899.191406 543.464844 900.378906 543.871094 901.578125 C 544.277344 902.773438 544.65625 903.980469 545.007812 905.195312 C 545.355469 906.410156 545.679688 907.632812 545.972656 908.863281 C 546.265625 910.09375 546.527344 911.332031 546.765625 912.574219 C 547 913.816406 547.207031 915.0625 547.382812 916.316406 C 547.558594 917.570312 547.707031 918.824219 547.824219 920.082031 C 547.941406 921.34375 548.03125 922.605469 548.089844 923.867188 C 548.148438 925.128906 548.179688 926.394531 548.179688 927.660156 L 324.058594 927.660156 C 320.289062 927.65625 316.527344 927.535156 312.765625 927.296875 C 309.007812 927.054688 305.257812 926.695312 301.523438 926.214844 C 297.785156 925.734375 294.066406 925.136719 290.371094 924.421875 C 286.671875 923.707031 283 922.875 279.351562 921.925781 C 275.707031 920.976562 272.09375 919.914062 268.515625 918.734375 C 264.9375 917.554688 261.402344 916.265625 257.90625 914.859375 C 254.410156 913.457031 250.960938 911.945312 247.5625 910.320312 C 244.160156 908.699219 240.816406 906.96875 237.527344 905.132812 C 234.234375 903.296875 231.007812 901.359375 227.839844 899.320312 C 224.671875 897.277344 221.574219 895.140625 218.542969 892.902344 C 215.511719 890.664062 212.554688 888.332031 209.671875 885.90625 C 206.792969 883.480469 203.988281 880.964844 201.265625 878.363281 C 198.542969 875.757812 195.90625 873.070312 193.355469 870.300781 C 190.800781 867.527344 188.339844 864.679688 185.96875 861.75 C 183.597656 858.824219 181.324219 855.824219 179.144531 852.75 C 176.964844 849.675781 174.882812 846.539062 172.902344 843.332031 C 170.921875 840.128906 169.046875 836.863281 167.273438 833.539062 C 165.5 830.214844 163.835938 826.839844 162.277344 823.410156 C 160.71875 819.980469 159.269531 816.503906 157.933594 812.980469 C 156.597656 809.457031 155.371094 805.898438 154.261719 802.296875 C 153.152344 798.699219 152.15625 795.066406 151.277344 791.402344 C 150.394531 787.738281 149.632812 784.050781 148.988281 780.339844 C 148.34375 776.628906 147.816406 772.902344 147.40625 769.15625 C 147 765.410156 146.707031 761.65625 146.539062 757.890625 C 146.371094 754.128906 146.320312 750.363281 146.386719 746.597656 C 146.457031 742.832031 146.648438 739.070312 146.957031 735.316406 C 147.265625 731.558594 147.691406 727.820312 148.238281 724.089844 C 148.785156 720.363281 149.449219 716.65625 150.230469 712.972656 C 151.011719 709.285156 151.910156 705.628906 152.925781 702.003906 C 153.941406 698.375 155.070312 694.78125 156.3125 691.226562 C 157.554688 687.667969 158.910156 684.15625 160.375 680.683594 C 161.84375 677.214844 163.417969 673.792969 165.101562 670.425781 Z"/>
  <path fill="#100d28" fill-rule="evenodd" d="M 324.058594 572.25 C 327.824219 572.25 331.589844 572.371094 335.347656 572.613281 C 339.109375 572.851562 342.855469 573.210938 346.59375 573.691406 C 350.328125 574.171875 354.046875 574.765625 357.746094 575.484375 C 361.445312 576.199219 365.117188 577.03125 368.761719 577.980469 C 372.410156 578.929688 376.019531 579.992188 379.597656 581.171875 C 383.179688 582.347656 386.714844 583.640625 390.210938 585.042969 C 393.707031 586.445312 397.15625 587.960938 400.554688 589.582031 C 403.957031 591.203125 407.300781 592.933594 410.589844 594.769531 C 413.878906 596.605469 417.109375 598.542969 420.277344 600.582031 C 423.441406 602.621094 426.542969 604.761719 429.574219 607 C 432.605469 609.238281 435.558594 611.570312 438.441406 613.996094 C 441.324219 616.417969 444.128906 618.933594 446.851562 621.539062 C 449.574219 624.140625 452.210938 626.828125 454.761719 629.601562 C 457.316406 632.371094 459.777344 635.222656 462.148438 638.148438 C 464.519531 641.078125 466.792969 644.078125 468.972656 647.148438 C 471.152344 650.222656 473.234375 653.363281 475.214844 656.566406 C 477.195312 659.769531 479.070312 663.035156 480.84375 666.359375 C 482.617188 669.683594 484.28125 673.0625 485.839844 676.492188 C 487.398438 679.921875 488.847656 683.398438 490.183594 686.917969 C 491.519531 690.441406 492.746094 694 493.855469 697.601562 C 494.964844 701.203125 495.960938 704.832031 496.839844 708.496094 C 497.722656 712.160156 498.484375 715.847656 499.128906 719.558594 C 499.773438 723.269531 500.300781 727 500.710938 730.742188 C 501.117188 734.488281 501.40625 738.242188 501.578125 742.007812 C 501.746094 745.769531 501.796875 749.535156 501.726562 753.300781 C 501.65625 757.066406 501.46875 760.828125 501.160156 764.582031 C 500.851562 768.339844 500.421875 772.078125 499.875 775.808594 C 499.332031 779.535156 498.664062 783.242188 497.882812 786.925781 C 497.101562 790.609375 496.203125 794.269531 495.1875 797.894531 C 494.171875 801.523438 493.042969 805.117188 491.800781 808.671875 C 490.558594 812.230469 489.203125 815.742188 487.738281 819.210938 C 486.269531 822.683594 484.695312 826.101562 483.011719 829.472656 L 378.953125 829.472656 C 381.054688 828.019531 383.097656 826.488281 385.078125 824.875 C 387.058594 823.261719 388.972656 821.570312 390.820312 819.804688 C 392.667969 818.039062 394.441406 816.203125 396.144531 814.296875 C 397.84375 812.390625 399.46875 810.417969 401.011719 808.382812 C 402.558594 806.347656 404.019531 804.257812 405.398438 802.105469 C 406.777344 799.953125 408.070312 797.75 409.273438 795.5 C 410.480469 793.246094 411.589844 790.945312 412.613281 788.605469 C 413.636719 786.261719 414.5625 783.882812 415.398438 781.46875 C 416.230469 779.054688 416.964844 776.609375 417.605469 774.136719 C 418.246094 771.660156 418.785156 769.164062 419.226562 766.648438 C 419.667969 764.132812 420.007812 761.601562 420.25 759.058594 C 420.492188 756.515625 420.628906 753.964844 420.667969 751.410156 C 420.707031 748.855469 420.644531 746.300781 420.480469 743.753906 C 420.316406 741.203125 420.050781 738.664062 419.683594 736.132812 C 419.320312 733.605469 418.855469 731.09375 418.289062 728.601562 C 417.726562 726.109375 417.0625 723.644531 416.304688 721.207031 C 415.542969 718.765625 414.6875 716.359375 413.734375 713.988281 C 412.785156 711.617188 411.742188 709.289062 410.605469 707 C 409.46875 704.710938 408.246094 702.46875 406.929688 700.277344 C 405.617188 698.085938 404.21875 695.949219 402.734375 693.871094 C 401.253906 691.789062 399.691406 689.769531 398.046875 687.8125 C 396.402344 685.855469 394.683594 683.96875 392.890625 682.148438 C 391.097656 680.328125 389.238281 678.582031 387.304688 676.910156 C 385.375 675.234375 383.378906 673.640625 381.320312 672.128906 C 379.261719 670.613281 377.148438 669.183594 374.976562 667.835938 C 372.804688 666.488281 370.582031 665.230469 368.3125 664.0625 C 366.039062 662.890625 363.726562 661.8125 361.371094 660.824219 C 359.011719 659.839844 356.621094 658.945312 354.191406 658.148438 C 351.765625 657.351562 349.308594 656.652344 346.824219 656.050781 C 344.34375 655.449219 341.839844 654.945312 339.316406 654.539062 C 336.792969 654.136719 334.257812 653.835938 331.710938 653.632812 C 329.164062 653.429688 326.613281 653.328125 324.058594 653.328125 L 174.894531 653.328125 C 176.898438 650.230469 179 647.199219 181.191406 644.234375 C 183.386719 641.265625 185.667969 638.371094 188.042969 635.546875 C 190.417969 632.726562 192.878906 629.976562 195.421875 627.308594 C 197.96875 624.636719 200.59375 622.046875 203.300781 619.542969 C 206.003906 617.035156 208.789062 614.613281 211.644531 612.28125 C 214.503906 609.949219 217.429688 607.707031 220.425781 605.554688 C 223.421875 603.402344 226.484375 601.347656 229.609375 599.386719 C 232.734375 597.429688 235.917969 595.566406 239.160156 593.804688 C 242.398438 592.042969 245.691406 590.382812 249.039062 588.828125 C 252.382812 587.273438 255.773438 585.820312 259.207031 584.476562 C 262.640625 583.128906 266.113281 581.894531 269.625 580.765625 C 273.140625 579.636719 276.683594 578.617188 280.257812 577.710938 C 283.832031 576.800781 287.433594 576.007812 291.058594 575.324219 C 294.683594 574.640625 298.328125 574.070312 301.988281 573.613281 C 305.648438 573.15625 309.320312 572.816406 313 572.585938 C 316.683594 572.359375 320.367188 572.246094 324.058594 572.25 Z"/>
</svg>
