<svg xmlns="http://www.w3.org/2000/svg" xmlns:xlink="http://www.w3.org/1999/xlink" width="2000" zoomAndPan="magnify" viewBox="0 0 1500 1499.999933" height="2000" preserveAspectRatio="xMidYMid meet" version="1.0"><defs><g/><clipPath id="6df6c86acf"><path d="M 33 670 L 436 670 L 436 927.75 L 33 927.75 Z M 33 670 " clip-rule="nonzero"/></clipPath><clipPath id="543c1bb4e0"><path d="M 62 572.25 L 390 572.25 L 390 830 L 62 830 Z M 62 572.25 " clip-rule="nonzero"/></clipPath><clipPath id="c5616a258b"><rect x="0" width="1005" y="0" height="258"/></clipPath></defs><rect x="-150" width="1800" fill="#ffffff" y="-149.999993" height="1799.99992" fill-opacity="1"/><rect x="-150" width="1800" fill="#ffffff" y="-149.999993" height="1799.99992" fill-opacity="1"/><g clip-path="url(#6df6c86acf)"><path fill="#050deb" d="M 52.382812 670.425781 L 156.445312 670.425781 C 154.339844 671.875 152.300781 673.410156 150.320312 675.023438 C 148.339844 676.636719 146.425781 678.324219 144.578125 680.089844 C 142.730469 681.855469 140.957031 683.691406 139.253906 685.601562 C 137.554688 687.507812 135.929688 689.476562 134.386719 691.511719 C 132.839844 693.546875 131.378906 695.640625 130 697.792969 C 128.621094 699.941406 127.328125 702.144531 126.125 704.398438 C 124.921875 706.652344 123.808594 708.949219 122.785156 711.292969 C 121.761719 713.632812 120.835938 716.011719 120.003906 718.425781 C 119.167969 720.84375 118.433594 723.289062 117.792969 725.761719 C 117.152344 728.234375 116.613281 730.730469 116.171875 733.246094 C 115.730469 735.765625 115.390625 738.292969 115.148438 740.839844 C 114.90625 743.382812 114.769531 745.929688 114.730469 748.484375 C 114.691406 751.039062 114.753906 753.59375 114.917969 756.144531 C 115.082031 758.691406 115.347656 761.230469 115.710938 763.761719 C 116.078125 766.289062 116.542969 768.800781 117.109375 771.292969 C 117.671875 773.785156 118.335938 776.25 119.09375 778.691406 C 119.855469 781.128906 120.710938 783.535156 121.660156 785.90625 C 122.613281 788.277344 123.65625 790.609375 124.792969 792.898438 C 125.929688 795.183594 127.152344 797.425781 128.464844 799.617188 C 129.78125 801.808594 131.179688 803.945312 132.660156 806.027344 C 134.144531 808.105469 135.707031 810.125 137.351562 812.082031 C 138.996094 814.039062 140.710938 815.925781 142.503906 817.746094 C 144.296875 819.566406 146.160156 821.3125 148.09375 822.988281 C 150.023438 824.660156 152.019531 826.253906 154.078125 827.769531 C 156.132812 829.28125 158.25 830.710938 160.421875 832.058594 C 162.59375 833.40625 164.8125 834.664062 167.085938 835.835938 C 169.355469 837.003906 171.671875 838.085938 174.027344 839.070312 C 176.382812 840.058594 178.777344 840.949219 181.203125 841.746094 C 183.632812 842.542969 186.085938 843.242188 188.570312 843.847656 C 191.054688 844.449219 193.554688 844.953125 196.078125 845.355469 C 198.601562 845.757812 201.136719 846.0625 203.683594 846.265625 C 206.230469 846.46875 208.78125 846.570312 211.335938 846.570312 L 360.5 846.570312 L 360.355469 846.785156 C 361.617188 846.878906 362.875 847 364.128906 847.152344 C 365.386719 847.304688 366.636719 847.488281 367.882812 847.699219 C 369.128906 847.910156 370.371094 848.148438 371.609375 848.417969 C 372.84375 848.6875 374.074219 848.984375 375.292969 849.308594 C 376.515625 849.636719 377.730469 849.992188 378.933594 850.375 C 380.140625 850.757812 381.335938 851.167969 382.523438 851.609375 C 383.707031 852.046875 384.882812 852.511719 386.046875 853.007812 C 387.210938 853.5 388.363281 854.023438 389.503906 854.570312 C 390.644531 855.117188 391.769531 855.691406 392.882812 856.292969 C 393.996094 856.894531 395.09375 857.519531 396.175781 858.171875 C 397.261719 858.824219 398.328125 859.503906 399.378906 860.203125 C 400.433594 860.90625 401.46875 861.632812 402.484375 862.382812 C 403.503906 863.132812 404.503906 863.90625 405.484375 864.703125 C 406.46875 865.5 407.429688 866.320312 408.371094 867.164062 C 409.316406 868.007812 410.238281 868.871094 411.144531 869.753906 C 412.046875 870.640625 412.925781 871.546875 413.789062 872.472656 C 414.648438 873.402344 415.488281 874.347656 416.304688 875.3125 C 417.121094 876.277344 417.914062 877.261719 418.683594 878.265625 C 419.453125 879.269531 420.199219 880.289062 420.921875 881.328125 C 421.644531 882.367188 422.34375 883.421875 423.015625 884.492188 C 423.6875 885.5625 424.335938 886.648438 424.960938 887.75 C 425.582031 888.847656 426.179688 889.964844 426.75 891.09375 C 427.320312 892.222656 427.863281 893.363281 428.378906 894.519531 C 428.894531 895.671875 429.386719 896.835938 429.847656 898.015625 C 430.308594 899.191406 430.746094 900.378906 431.152344 901.578125 C 431.558594 902.773438 431.9375 903.980469 432.285156 905.195312 C 432.636719 906.410156 432.957031 907.632812 433.25 908.863281 C 433.542969 910.09375 433.808594 911.332031 434.042969 912.574219 C 434.277344 913.816406 434.484375 915.0625 434.660156 916.316406 C 434.839844 917.570312 434.988281 918.824219 435.105469 920.082031 C 435.222656 921.34375 435.3125 922.605469 435.371094 923.867188 C 435.429688 925.128906 435.457031 926.394531 435.457031 927.660156 L 211.335938 927.660156 C 207.570312 927.65625 203.808594 927.535156 200.046875 927.296875 C 196.289062 927.054688 192.539062 926.695312 188.800781 926.214844 C 185.066406 925.734375 181.347656 925.136719 177.648438 924.421875 C 173.949219 923.707031 170.277344 922.875 166.632812 921.925781 C 162.984375 920.976562 159.375 919.914062 155.796875 918.734375 C 152.21875 917.554688 148.679688 916.265625 145.183594 914.859375 C 141.6875 913.457031 138.238281 911.945312 134.839844 910.320312 C 131.441406 908.699219 128.09375 906.96875 124.804688 905.132812 C 121.515625 903.296875 118.285156 901.359375 115.121094 899.320312 C 111.953125 897.277344 108.855469 895.140625 105.824219 892.902344 C 102.792969 890.664062 99.835938 888.332031 96.953125 885.90625 C 94.070312 883.480469 91.269531 880.964844 88.546875 878.363281 C 85.824219 875.757812 83.183594 873.070312 80.632812 870.300781 C 78.082031 867.527344 75.621094 864.679688 73.25 861.75 C 70.878906 858.824219 68.605469 855.824219 66.421875 852.75 C 64.242188 849.675781 62.164062 846.539062 60.183594 843.332031 C 58.203125 840.128906 56.324219 836.863281 54.554688 833.539062 C 52.78125 830.214844 51.113281 826.839844 49.558594 823.410156 C 48 819.980469 46.550781 816.503906 45.214844 812.980469 C 43.875 809.457031 42.652344 805.898438 41.542969 802.296875 C 40.429688 798.699219 39.433594 795.066406 38.554688 791.402344 C 37.675781 787.738281 36.914062 784.050781 36.265625 780.339844 C 35.621094 776.628906 35.09375 772.902344 34.6875 769.15625 C 34.277344 765.410156 33.988281 761.65625 33.820312 757.890625 C 33.648438 754.128906 33.597656 750.363281 33.667969 746.597656 C 33.738281 742.832031 33.925781 739.070312 34.234375 735.316406 C 34.542969 731.558594 34.972656 727.820312 35.519531 724.089844 C 36.066406 720.363281 36.730469 716.65625 37.511719 712.972656 C 38.292969 709.285156 39.191406 705.628906 40.207031 702.003906 C 41.21875 698.375 42.347656 694.78125 43.59375 691.226562 C 44.835938 687.667969 46.191406 684.15625 47.65625 680.683594 C 49.121094 677.214844 50.699219 673.792969 52.382812 670.425781 Z M 52.382812 670.425781 " fill-opacity="1" fill-rule="evenodd"/></g><g clip-path="url(#543c1bb4e0)"><path fill="#100d28" d="M 211.335938 572.25 C 215.105469 572.25 218.867188 572.371094 222.628906 572.613281 C 226.386719 572.851562 230.136719 573.210938 233.871094 573.691406 C 237.609375 574.171875 241.328125 574.765625 245.027344 575.484375 C 248.726562 576.199219 252.398438 577.03125 256.042969 577.980469 C 259.6875 578.929688 263.300781 579.992188 266.878906 581.171875 C 270.457031 582.347656 273.996094 583.640625 277.492188 585.042969 C 280.988281 586.445312 284.433594 587.960938 287.835938 589.582031 C 291.234375 591.203125 294.582031 592.933594 297.871094 594.769531 C 301.160156 596.605469 304.390625 598.542969 307.554688 600.582031 C 310.722656 602.621094 313.820312 604.761719 316.851562 607 C 319.882812 609.238281 322.839844 611.570312 325.722656 613.996094 C 328.605469 616.417969 331.40625 618.933594 334.128906 621.539062 C 336.851562 624.140625 339.492188 626.828125 342.042969 629.601562 C 344.59375 632.371094 347.054688 635.222656 349.425781 638.148438 C 351.796875 641.078125 354.074219 644.078125 356.253906 647.148438 C 358.433594 650.222656 360.511719 653.363281 362.492188 656.566406 C 364.472656 659.769531 366.351562 663.035156 368.125 666.359375 C 369.894531 669.683594 371.5625 673.0625 373.121094 676.492188 C 374.679688 679.921875 376.125 683.398438 377.460938 686.917969 C 378.800781 690.441406 380.023438 694 381.136719 697.601562 C 382.246094 701.203125 383.242188 704.832031 384.121094 708.496094 C 385 712.160156 385.761719 715.847656 386.410156 719.558594 C 387.054688 723.269531 387.582031 727 387.988281 730.742188 C 388.398438 734.488281 388.6875 738.242188 388.855469 742.007812 C 389.027344 745.769531 389.078125 749.535156 389.007812 753.300781 C 388.9375 757.066406 388.75 760.828125 388.441406 764.582031 C 388.128906 768.339844 387.703125 772.078125 387.15625 775.808594 C 386.609375 779.535156 385.945312 783.242188 385.164062 786.925781 C 384.382812 790.609375 383.484375 794.269531 382.46875 797.894531 C 381.453125 801.523438 380.324219 805.117188 379.082031 808.671875 C 377.839844 812.230469 376.484375 815.742188 375.015625 819.210938 C 373.550781 822.683594 371.976562 826.101562 370.292969 829.472656 L 266.234375 829.472656 C 268.335938 828.019531 270.378906 826.488281 272.359375 824.875 C 274.339844 823.261719 276.253906 821.570312 278.101562 819.804688 C 279.949219 818.039062 281.722656 816.203125 283.421875 814.296875 C 285.125 812.390625 286.75 810.417969 288.292969 808.382812 C 289.839844 806.347656 291.300781 804.257812 292.679688 802.105469 C 294.058594 799.953125 295.351562 797.75 296.554688 795.5 C 297.757812 793.246094 298.871094 790.945312 299.894531 788.605469 C 300.914062 786.261719 301.84375 783.882812 302.675781 781.46875 C 303.507812 779.054688 304.246094 776.609375 304.886719 774.136719 C 305.523438 771.660156 306.066406 769.164062 306.507812 766.648438 C 306.949219 764.132812 307.289062 761.601562 307.527344 759.058594 C 307.769531 756.515625 307.910156 753.964844 307.949219 751.410156 C 307.984375 748.855469 307.921875 746.300781 307.757812 743.753906 C 307.59375 741.203125 307.332031 738.664062 306.964844 736.132812 C 306.597656 733.605469 306.132812 731.09375 305.570312 728.601562 C 305.003906 726.109375 304.34375 723.644531 303.582031 721.207031 C 302.820312 718.765625 301.964844 716.359375 301.015625 713.988281 C 300.0625 711.617188 299.019531 709.289062 297.886719 707 C 296.75 704.710938 295.523438 702.46875 294.210938 700.277344 C 292.898438 698.085938 291.5 695.949219 290.015625 693.871094 C 288.53125 691.789062 286.96875 689.769531 285.324219 687.8125 C 283.683594 685.855469 281.964844 683.96875 280.171875 682.148438 C 278.378906 680.328125 276.515625 678.582031 274.585938 676.910156 C 272.652344 675.234375 270.65625 673.640625 268.601562 672.128906 C 266.542969 670.613281 264.425781 669.183594 262.253906 667.835938 C 260.085938 666.488281 257.863281 665.230469 255.589844 664.0625 C 253.320312 662.890625 251.003906 661.8125 248.648438 660.824219 C 246.292969 659.839844 243.898438 658.945312 241.472656 658.148438 C 239.042969 657.351562 236.589844 656.652344 234.105469 656.050781 C 231.621094 655.449219 229.121094 654.945312 226.597656 654.539062 C 224.074219 654.136719 221.539062 653.835938 218.992188 653.632812 C 216.445312 653.429688 213.894531 653.328125 211.335938 653.328125 L 62.175781 653.328125 C 64.179688 650.230469 66.277344 647.199219 68.472656 644.234375 C 70.664062 641.265625 72.949219 638.371094 75.324219 635.546875 C 77.695312 632.726562 80.15625 629.976562 82.703125 627.308594 C 85.246094 624.636719 87.871094 622.046875 90.578125 619.542969 C 93.285156 617.035156 96.066406 614.613281 98.925781 612.28125 C 101.78125 609.949219 104.707031 607.707031 107.707031 605.554688 C 110.703125 603.402344 113.765625 601.347656 116.890625 599.386719 C 120.015625 597.429688 123.199219 595.566406 126.4375 593.804688 C 129.679688 592.042969 132.972656 590.382812 136.316406 588.828125 C 139.660156 587.273438 143.050781 585.820312 146.484375 584.476562 C 149.921875 583.128906 153.394531 581.894531 156.90625 580.765625 C 160.417969 579.636719 163.960938 578.617188 167.539062 577.710938 C 171.113281 576.800781 174.714844 576.007812 178.339844 575.324219 C 181.964844 574.640625 185.605469 574.070312 189.265625 573.613281 C 192.929688 573.15625 196.597656 572.816406 200.28125 572.585938 C 203.964844 572.359375 207.648438 572.246094 211.335938 572.25 Z M 211.335938 572.25 " fill-opacity="1" fill-rule="evenodd"/></g><g transform="matrix(1, 0, 0, 1, 463, 621)"><g clip-path="url(#c5616a258b)"><g fill="#2f3336" fill-opacity="1"><g transform="translate(1.29862, 194.209417)"><g><path d="M 97.28125 0 C 89.207031 0 82.144531 -0.285156 76.09375 -0.859375 C 70.039062 -1.441406 64.5625 -2.453125 59.65625 -3.890625 C 54.757812 -5.328125 50.257812 -7.234375 46.15625 -9.609375 C 42.050781 -11.992188 37.976562 -14.914062 33.9375 -18.375 C 26.726562 -24.425781 21.109375 -31.125 17.078125 -38.46875 C 13.046875 -45.820312 10.234375 -54.257812 8.640625 -63.78125 L 40 -63.78125 C 42.007812 -57.726562 44.421875 -52.679688 47.234375 -48.640625 C 50.046875 -44.609375 53.757812 -41.148438 58.375 -38.265625 C 60.820312 -36.679688 63.304688 -35.347656 65.828125 -34.265625 C 68.347656 -33.179688 71.300781 -32.351562 74.6875 -31.78125 C 78.070312 -31.207031 82.035156 -30.8125 86.578125 -30.59375 C 91.117188 -30.375 96.632812 -30.265625 103.125 -30.265625 L 155.65625 -30.265625 L 155.65625 0 Z M 116.09375 -48 C 118.976562 -52.46875 121.101562 -56.71875 122.46875 -60.75 C 123.84375 -64.78125 124.53125 -69.101562 124.53125 -73.71875 C 124.53125 -79.769531 123.410156 -85.425781 121.171875 -90.6875 C 118.941406 -95.945312 115.878906 -100.519531 111.984375 -104.40625 C 108.085938 -108.300781 103.546875 -111.363281 98.359375 -113.59375 C 93.171875 -115.832031 87.625 -116.953125 81.71875 -116.953125 C 76.238281 -116.953125 71.117188 -116.085938 66.359375 -114.359375 C 61.609375 -112.628906 57.359375 -110.144531 53.609375 -106.90625 C 49.867188 -103.664062 46.734375 -99.8125 44.203125 -95.34375 C 41.679688 -90.875 39.988281 -85.898438 39.125 -80.421875 L 8 -80.421875 C 9.007812 -90.222656 11.601562 -99.265625 15.78125 -107.546875 C 19.957031 -115.835938 25.320312 -122.972656 31.875 -128.953125 C 38.4375 -134.929688 45.929688 -139.613281 54.359375 -143 C 62.796875 -146.394531 71.84375 -148.09375 81.5 -148.09375 C 91.738281 -148.09375 101.320312 -146.144531 110.25 -142.25 C 119.1875 -138.363281 127.003906 -133.066406 133.703125 -126.359375 C 140.410156 -119.660156 145.707031 -111.84375 149.59375 -102.90625 C 153.488281 -93.96875 155.4375 -84.382812 155.4375 -74.15625 C 155.4375 -69.539062 155.078125 -65.175781 154.359375 -61.0625 C 153.640625 -56.957031 152.488281 -52.601562 150.90625 -48 Z M 116.09375 -48 "/></g></g></g><g fill="#2f3336" fill-opacity="1"><g transform="translate(161.266049, 194.209417)"><g><path d="M 63.78125 2.8125 C 56.71875 1.65625 50.15625 -0.613281 44.09375 -4 C 38.039062 -7.382812 32.640625 -11.597656 27.890625 -16.640625 C 22.554688 -22.554688 18.734375 -29.007812 16.421875 -36 C 14.117188 -42.988281 12.96875 -51.742188 12.96875 -62.265625 L 12.96875 -144.625 L 44.109375 -144.625 L 44.109375 -65.078125 C 44.109375 -59.453125 44.394531 -54.691406 44.96875 -50.796875 C 45.539062 -46.910156 46.582031 -43.597656 48.09375 -40.859375 C 49.613281 -38.117188 51.632812 -35.8125 54.15625 -33.9375 C 56.675781 -32.0625 59.882812 -30.40625 63.78125 -28.96875 Z M 80.859375 -28.96875 C 84.742188 -30.269531 87.945312 -31.851562 90.46875 -33.71875 C 92.988281 -35.59375 95.046875 -37.972656 96.640625 -40.859375 C 98.222656 -43.453125 99.300781 -46.515625 99.875 -50.046875 C 100.457031 -53.578125 100.75 -58.585938 100.75 -65.078125 L 100.75 -144.625 L 131.875 -144.625 L 131.875 -62.265625 C 131.875 -51.742188 130.71875 -42.988281 128.40625 -36 C 126.101562 -29.007812 122.285156 -22.554688 116.953125 -16.640625 C 112.203125 -11.453125 106.726562 -7.203125 100.53125 -3.890625 C 94.332031 -0.578125 87.773438 1.65625 80.859375 2.8125 Z M 80.859375 -28.96875 "/></g></g></g><g fill="#2f3336" fill-opacity="1"><g transform="translate(306.101439, 194.209417)"><g><path d="M 40 -98.796875 L 57.296875 -64.859375 L 24 0 L -10.8125 0 Z M 97.5 -24.21875 L 54.265625 -24.21875 L 69.609375 -54.484375 L 81.9375 -54.484375 L 49.296875 -117.390625 L 66.796875 -151.109375 L 144.84375 0 L 109.828125 0 Z M 97.5 -24.21875 "/></g></g></g><g fill="#2f3336" fill-opacity="1"><g transform="translate(442.506068, 194.209417)"><g><path d="M 14.484375 -85.171875 L 45.609375 -57.9375 L 45.609375 0 L 14.484375 0 Z M 14.484375 -108.09375 L 14.484375 -149.390625 L 110.90625 -63.984375 L 110.90625 -144.625 L 142.03125 -144.625 L 142.03125 4.546875 Z M 14.484375 -108.09375 "/></g></g></g><g fill="#2f3336" fill-opacity="1"><g transform="translate(599.014782, 194.209417)"><g><path d="M 28.96875 -96.640625 L 60.09375 -96.640625 L 60.09375 0 L 28.96875 0 Z M -4.328125 -144.625 L 93.171875 -144.625 L 93.171875 -114.359375 L -4.328125 -114.359375 Z M -4.328125 -144.625 "/></g></g></g><g fill="#2f3336" fill-opacity="1"><g transform="translate(687.861502, 194.209417)"><g><path d="M 63.78125 2.8125 C 56.71875 1.65625 50.15625 -0.613281 44.09375 -4 C 38.039062 -7.382812 32.640625 -11.597656 27.890625 -16.640625 C 22.554688 -22.554688 18.734375 -29.007812 16.421875 -36 C 14.117188 -42.988281 12.96875 -51.742188 12.96875 -62.265625 L 12.96875 -144.625 L 44.109375 -144.625 L 44.109375 -65.078125 C 44.109375 -59.453125 44.394531 -54.691406 44.96875 -50.796875 C 45.539062 -46.910156 46.582031 -43.597656 48.09375 -40.859375 C 49.613281 -38.117188 51.632812 -35.8125 54.15625 -33.9375 C 56.675781 -32.0625 59.882812 -30.40625 63.78125 -28.96875 Z M 80.859375 -28.96875 C 84.742188 -30.269531 87.945312 -31.851562 90.46875 -33.71875 C 92.988281 -35.59375 95.046875 -37.972656 96.640625 -40.859375 C 98.222656 -43.453125 99.300781 -46.515625 99.875 -50.046875 C 100.457031 -53.578125 100.75 -58.585938 100.75 -65.078125 L 100.75 -144.625 L 131.875 -144.625 L 131.875 -62.265625 C 131.875 -51.742188 130.71875 -42.988281 128.40625 -36 C 126.101562 -29.007812 122.285156 -22.554688 116.953125 -16.640625 C 112.203125 -11.453125 106.726562 -7.203125 100.53125 -3.890625 C 94.332031 -0.578125 87.773438 1.65625 80.859375 2.8125 Z M 80.859375 -28.96875 "/></g></g></g><g fill="#2f3336" fill-opacity="1"><g transform="translate(832.696892, 194.209417)"><g><path d="M 14.484375 -87.5625 L 45.609375 -62.6875 L 45.609375 0 L 14.484375 0 Z M 125.609375 -84.96875 L 85.390625 -52.75 L 14.484375 -110.046875 L 14.484375 -149.8125 L 85.609375 -92.3125 L 156.734375 -149.8125 L 156.734375 0 L 125.609375 0 Z M 125.609375 -84.96875 "/></g></g></g></g></g></svg>