<svg xmlns="http://www.w3.org/2000/svg" xmlns:xlink="http://www.w3.org/1999/xlink" width="2000" zoomAndPan="magnify" viewBox="0 0 1500 1499.999933" height="2000" preserveAspectRatio="xMidYMid meet" version="1.0"><defs><g/><clipPath id="193998268b"><path d="M 133 640 L 686 640 L 686 994.597656 L 133 994.597656 Z M 133 640 " clip-rule="nonzero"/></clipPath><clipPath id="4614425832"><path d="M 172 505.597656 L 622 505.597656 L 622 860 L 172 860 Z M 172 505.597656 " clip-rule="nonzero"/></clipPath></defs><g clip-path="url(#193998268b)"><path fill="#050deb" d="M 158.945312 640.585938 L 302.03125 640.585938 C 299.140625 642.582031 296.332031 644.691406 293.609375 646.910156 C 290.882812 649.128906 288.253906 651.449219 285.710938 653.878906 C 283.171875 656.304688 280.734375 658.832031 278.394531 661.453125 C 276.054688 664.074219 273.824219 666.78125 271.699219 669.582031 C 269.574219 672.378906 267.5625 675.257812 265.667969 678.214844 C 263.773438 681.171875 261.996094 684.199219 260.339844 687.300781 C 258.683594 690.398438 257.15625 693.558594 255.75 696.777344 C 254.34375 699.996094 253.070312 703.269531 251.921875 706.589844 C 250.777344 709.910156 249.765625 713.269531 248.886719 716.671875 C 248.007812 720.074219 247.261719 723.503906 246.65625 726.964844 C 246.050781 730.425781 245.582031 733.90625 245.25 737.402344 C 244.917969 740.898438 244.726562 744.40625 244.675781 747.917969 C 244.621094 751.429688 244.707031 754.941406 244.933594 758.445312 C 245.160156 761.953125 245.523438 765.445312 246.023438 768.921875 C 246.527344 772.398438 247.167969 775.851562 247.945312 779.277344 C 248.71875 782.703125 249.628906 786.09375 250.675781 789.449219 C 251.722656 792.800781 252.898438 796.109375 254.207031 799.371094 C 255.511719 802.628906 256.949219 805.835938 258.507812 808.980469 C 260.070312 812.128906 261.753906 815.207031 263.5625 818.222656 C 265.367188 821.234375 267.289062 824.171875 269.328125 827.035156 C 271.367188 829.894531 273.519531 832.671875 275.777344 835.359375 C 278.035156 838.050781 280.398438 840.648438 282.863281 843.152344 C 285.328125 845.652344 287.890625 848.054688 290.546875 850.355469 C 293.203125 852.65625 295.945312 854.847656 298.773438 856.929688 C 301.605469 859.011719 304.511719 860.976562 307.496094 862.828125 C 310.484375 864.679688 313.535156 866.410156 316.660156 868.019531 C 319.78125 869.628906 322.964844 871.113281 326.207031 872.46875 C 329.445312 873.828125 332.734375 875.054688 336.074219 876.148438 C 339.410156 877.246094 342.785156 878.207031 346.199219 879.035156 C 349.617188 879.863281 353.058594 880.554688 356.527344 881.109375 C 359.996094 881.667969 363.480469 882.082031 366.984375 882.363281 C 370.484375 882.640625 373.992188 882.78125 377.507812 882.78125 L 582.597656 882.78125 L 582.398438 883.074219 C 584.132812 883.203125 585.863281 883.371094 587.589844 883.582031 C 589.316406 883.792969 591.035156 884.042969 592.75 884.332031 C 594.464844 884.621094 596.171875 884.949219 597.871094 885.320312 C 599.570312 885.691406 601.261719 886.097656 602.941406 886.546875 C 604.621094 886.996094 606.289062 887.484375 607.945312 888.011719 C 609.605469 888.539062 611.25 889.105469 612.878906 889.707031 C 614.507812 890.3125 616.125 890.953125 617.726562 891.632812 C 619.328125 892.3125 620.910156 893.027344 622.476562 893.78125 C 624.046875 894.535156 625.59375 895.324219 627.125 896.152344 C 628.65625 896.976562 630.164062 897.835938 631.65625 898.734375 C 633.144531 899.632812 634.613281 900.5625 636.058594 901.527344 C 637.503906 902.492188 638.929688 903.492188 640.328125 904.523438 C 641.726562 905.554688 643.101562 906.617188 644.453125 907.714844 C 645.800781 908.8125 647.125 909.9375 648.421875 911.097656 C 649.71875 912.253906 650.988281 913.441406 652.230469 914.660156 C 653.472656 915.878906 654.6875 917.125 655.867188 918.398438 C 657.050781 919.671875 658.207031 920.972656 659.328125 922.300781 C 660.449219 923.628906 661.539062 924.984375 662.601562 926.363281 C 663.660156 927.742188 664.683594 929.144531 665.679688 930.570312 C 666.671875 932 667.632812 933.449219 668.558594 934.921875 C 669.484375 936.394531 670.375 937.886719 671.230469 939.398438 C 672.085938 940.914062 672.90625 942.445312 673.6875 944 C 674.472656 945.550781 675.21875 947.121094 675.929688 948.707031 C 676.640625 950.292969 677.316406 951.898438 677.949219 953.515625 C 678.585938 955.132812 679.183594 956.765625 679.742188 958.414062 C 680.300781 960.058594 680.820312 961.71875 681.304688 963.390625 C 681.785156 965.0625 682.226562 966.742188 682.628906 968.433594 C 683.035156 970.125 683.398438 971.824219 683.71875 973.535156 C 684.042969 975.242188 684.328125 976.957031 684.570312 978.679688 C 684.8125 980.402344 685.015625 982.128906 685.179688 983.859375 C 685.339844 985.589844 685.460938 987.324219 685.542969 989.0625 C 685.625 990.800781 685.664062 992.535156 685.664062 994.277344 L 377.507812 994.277344 C 372.324219 994.273438 367.152344 994.105469 361.980469 993.777344 C 356.8125 993.445312 351.660156 992.949219 346.519531 992.289062 C 341.382812 991.632812 336.269531 990.808594 331.1875 989.824219 C 326.101562 988.839844 321.050781 987.695312 316.039062 986.390625 C 311.023438 985.085938 306.058594 983.625 301.136719 982.003906 C 296.21875 980.382812 291.355469 978.609375 286.546875 976.679688 C 281.742188 974.746094 277 972.667969 272.324219 970.4375 C 267.648438 968.203125 263.050781 965.828125 258.527344 963.304688 C 254.003906 960.78125 249.5625 958.117188 245.210938 955.308594 C 240.855469 952.503906 236.59375 949.5625 232.429688 946.484375 C 228.261719 943.410156 224.195312 940.203125 220.230469 936.867188 C 216.269531 933.53125 212.414062 930.074219 208.671875 926.496094 C 204.925781 922.914062 201.300781 919.21875 197.792969 915.410156 C 194.285156 911.597656 190.898438 907.679688 187.640625 903.652344 C 184.378906 899.628906 181.25 895.503906 178.253906 891.277344 C 175.257812 887.054688 172.398438 882.738281 169.675781 878.332031 C 166.949219 873.925781 164.371094 869.433594 161.933594 864.863281 C 159.496094 860.292969 157.207031 855.652344 155.0625 850.933594 C 152.921875 846.21875 150.929688 841.4375 149.089844 836.597656 C 147.253906 831.753906 145.570312 826.855469 144.042969 821.90625 C 142.515625 816.957031 141.144531 811.964844 139.9375 806.929688 C 138.726562 801.890625 137.679688 796.820312 136.789062 791.71875 C 135.902344 786.613281 135.179688 781.488281 134.617188 776.339844 C 134.054688 771.1875 133.65625 766.027344 133.421875 760.851562 C 133.191406 755.675781 133.121094 750.5 133.214844 745.320312 C 133.3125 740.140625 133.574219 734.972656 133.996094 729.808594 C 134.421875 724.644531 135.007812 719.503906 135.761719 714.375 C 136.511719 709.25 137.425781 704.15625 138.5 699.089844 C 139.574219 694.019531 140.8125 688.992188 142.207031 684.003906 C 143.601562 679.015625 145.152344 674.078125 146.863281 669.1875 C 148.570312 664.296875 150.433594 659.464844 152.449219 654.695312 C 154.464844 649.921875 156.632812 645.21875 158.945312 640.585938 Z M 158.945312 640.585938 " fill-opacity="1" fill-rule="evenodd"/></g><g clip-path="url(#4614425832)"><path fill="#100d28" d="M 377.507812 505.597656 C 382.6875 505.601562 387.859375 505.765625 393.03125 506.097656 C 398.199219 506.429688 403.351562 506.921875 408.492188 507.582031 C 413.628906 508.238281 418.742188 509.0625 423.828125 510.042969 C 428.914062 511.027344 433.960938 512.171875 438.972656 513.476562 C 443.988281 514.78125 448.953125 516.246094 453.875 517.863281 C 458.792969 519.484375 463.65625 521.261719 468.464844 523.191406 C 473.273438 525.121094 478.011719 527.199219 482.6875 529.429688 C 487.363281 531.660156 491.960938 534.039062 496.484375 536.5625 C 501.007812 539.085938 505.449219 541.75 509.804688 544.554688 C 514.15625 547.363281 518.417969 550.300781 522.585938 553.378906 C 526.753906 556.457031 530.816406 559.660156 534.78125 562.996094 C 538.746094 566.332031 542.597656 569.789062 546.34375 573.367188 C 550.085938 576.949219 553.710938 580.644531 557.222656 584.453125 C 560.730469 588.265625 564.113281 592.183594 567.375 596.210938 C 570.632812 600.234375 573.761719 604.359375 576.757812 608.585938 C 579.757812 612.808594 582.617188 617.125 585.339844 621.53125 C 588.0625 625.9375 590.644531 630.425781 593.082031 634.996094 C 595.519531 639.566406 597.808594 644.210938 599.953125 648.925781 C 602.09375 653.644531 604.085938 658.421875 605.921875 663.265625 C 607.761719 668.109375 609.445312 673.003906 610.972656 677.953125 C 612.5 682.902344 613.867188 687.898438 615.078125 692.933594 C 616.289062 697.96875 617.335938 703.039062 618.222656 708.144531 C 619.109375 713.246094 619.835938 718.375 620.398438 723.523438 C 620.957031 728.671875 621.355469 733.835938 621.589844 739.007812 C 621.824219 744.183594 621.890625 749.359375 621.796875 754.539062 C 621.699219 759.71875 621.441406 764.890625 621.015625 770.050781 C 620.589844 775.214844 620.003906 780.359375 619.25 785.484375 C 618.5 790.609375 617.585938 795.703125 616.511719 800.773438 C 615.433594 805.839844 614.199219 810.867188 612.804688 815.855469 C 611.410156 820.84375 609.855469 825.78125 608.148438 830.671875 C 606.4375 835.5625 604.574219 840.394531 602.558594 845.164062 C 600.542969 849.9375 598.378906 854.640625 596.0625 859.273438 L 452.988281 859.273438 C 455.878906 857.277344 458.683594 855.167969 461.410156 852.949219 C 464.132812 850.730469 466.765625 848.40625 469.304688 845.980469 C 471.84375 843.550781 474.28125 841.027344 476.621094 838.40625 C 478.960938 835.785156 481.191406 833.074219 483.316406 830.277344 C 485.441406 827.480469 487.453125 824.601562 489.347656 821.644531 C 491.246094 818.683594 493.019531 815.65625 494.675781 812.558594 C 496.332031 809.460938 497.863281 806.300781 499.265625 803.082031 C 500.671875 799.859375 501.949219 796.589844 503.09375 793.269531 C 504.238281 789.949219 505.25 786.585938 506.132812 783.183594 C 507.011719 779.78125 507.753906 776.351562 508.359375 772.890625 C 508.964844 769.429688 509.4375 765.953125 509.765625 762.453125 C 510.097656 758.957031 510.289062 755.453125 510.34375 751.9375 C 510.394531 748.425781 510.308594 744.917969 510.082031 741.410156 C 509.855469 737.902344 509.492188 734.414062 508.992188 730.933594 C 508.488281 727.457031 507.847656 724.007812 507.074219 720.582031 C 506.296875 717.152344 505.386719 713.761719 504.339844 710.410156 C 503.292969 707.054688 502.117188 703.746094 500.808594 700.488281 C 499.503906 697.226562 498.066406 694.023438 496.503906 690.875 C 494.945312 687.726562 493.261719 684.648438 491.453125 681.632812 C 489.648438 678.621094 487.726562 675.683594 485.683594 672.824219 C 483.644531 669.960938 481.496094 667.1875 479.238281 664.496094 C 476.976562 661.804688 474.617188 659.207031 472.148438 656.707031 C 469.683594 654.203125 467.125 651.800781 464.46875 649.5 C 461.8125 647.203125 459.070312 645.011719 456.238281 642.929688 C 453.410156 640.847656 450.503906 638.878906 447.515625 637.027344 C 444.53125 635.175781 441.476562 633.445312 438.351562 631.835938 C 435.230469 630.226562 432.046875 628.742188 428.808594 627.386719 C 425.566406 626.03125 422.277344 624.804688 418.941406 623.707031 C 415.601562 622.613281 412.226562 621.648438 408.8125 620.820312 C 405.398438 619.992188 401.957031 619.300781 398.488281 618.746094 C 395.015625 618.191406 391.53125 617.773438 388.03125 617.496094 C 384.527344 617.21875 381.019531 617.078125 377.507812 617.078125 L 172.414062 617.078125 C 175.167969 612.820312 178.054688 608.652344 181.070312 604.574219 C 184.085938 600.496094 187.226562 596.515625 190.492188 592.632812 C 193.753906 588.75 197.136719 584.972656 200.636719 581.300781 C 204.136719 577.628906 207.746094 574.070312 211.46875 570.625 C 215.1875 567.175781 219.011719 563.851562 222.941406 560.640625 C 226.871094 557.433594 230.894531 554.351562 235.015625 551.394531 C 239.136719 548.433594 243.34375 545.609375 247.644531 542.914062 C 251.941406 540.21875 256.316406 537.660156 260.773438 535.238281 C 265.230469 532.816406 269.757812 530.535156 274.355469 528.394531 C 278.953125 526.253906 283.613281 524.257812 288.335938 522.410156 C 293.058594 520.558594 297.835938 518.859375 302.664062 517.308594 C 307.496094 515.753906 312.367188 514.355469 317.28125 513.105469 C 322.199219 511.859375 327.148438 510.765625 332.132812 509.824219 C 337.117188 508.886719 342.128906 508.101562 347.160156 507.472656 C 352.195312 506.847656 357.242188 506.375 362.304688 506.0625 C 367.367188 505.75 372.433594 505.59375 377.507812 505.597656 Z M 377.507812 505.597656 " fill-opacity="1" fill-rule="evenodd"/></g><g fill="#2f3336" fill-opacity="1"><g transform="translate(692.538442, 796.124911)"><g><path d="M 68.8125 0 C 63.101562 0 58.109375 -0.203125 53.828125 -0.609375 C 49.546875 -1.015625 45.671875 -1.726562 42.203125 -2.75 C 38.734375 -3.769531 35.546875 -5.117188 32.640625 -6.796875 C 29.742188 -8.484375 26.867188 -10.550781 24.015625 -13 C 18.910156 -17.28125 14.929688 -22.019531 12.078125 -27.21875 C 9.222656 -32.414062 7.234375 -38.378906 6.109375 -45.109375 L 28.296875 -45.109375 C 29.722656 -40.828125 31.425781 -37.257812 33.40625 -34.40625 C 35.394531 -31.550781 38.019531 -29.101562 41.28125 -27.0625 C 43.019531 -25.945312 44.78125 -25.003906 46.5625 -24.234375 C 48.34375 -23.472656 50.429688 -22.890625 52.828125 -22.484375 C 55.222656 -22.078125 58.023438 -21.796875 61.234375 -21.640625 C 64.453125 -21.484375 68.351562 -21.40625 72.9375 -21.40625 L 110.109375 -21.40625 L 110.109375 0 Z M 82.125 -33.953125 C 84.15625 -37.109375 85.65625 -40.113281 86.625 -42.96875 C 87.59375 -45.820312 88.078125 -48.878906 88.078125 -52.140625 C 88.078125 -56.421875 87.285156 -60.421875 85.703125 -64.140625 C 84.128906 -67.867188 81.960938 -71.109375 79.203125 -73.859375 C 76.453125 -76.609375 73.242188 -78.773438 69.578125 -80.359375 C 65.910156 -81.941406 61.984375 -82.734375 57.796875 -82.734375 C 53.929688 -82.734375 50.316406 -82.117188 46.953125 -80.890625 C 43.585938 -79.671875 40.578125 -77.910156 37.921875 -75.609375 C 35.273438 -73.316406 33.054688 -70.59375 31.265625 -67.4375 C 29.484375 -64.28125 28.285156 -60.765625 27.671875 -56.890625 L 5.65625 -56.890625 C 6.375 -63.816406 8.207031 -70.210938 11.15625 -76.078125 C 14.113281 -81.941406 17.910156 -86.988281 22.546875 -91.21875 C 27.191406 -95.445312 32.492188 -98.757812 38.453125 -101.15625 C 44.421875 -103.550781 50.820312 -104.75 57.65625 -104.75 C 64.894531 -104.75 71.671875 -103.375 77.984375 -100.625 C 84.304688 -97.875 89.835938 -94.125 94.578125 -89.375 C 99.316406 -84.632812 103.0625 -79.101562 105.8125 -72.78125 C 108.570312 -66.46875 109.953125 -59.691406 109.953125 -52.453125 C 109.953125 -49.191406 109.695312 -46.109375 109.1875 -43.203125 C 108.675781 -40.296875 107.859375 -37.210938 106.734375 -33.953125 Z M 82.125 -33.953125 "/></g></g></g><g fill="#2f3336" fill-opacity="1"><g transform="translate(805.689098, 796.124911)"><g><path d="M 45.109375 1.984375 C 40.117188 1.171875 35.476562 -0.429688 31.1875 -2.828125 C 26.90625 -5.222656 23.085938 -8.207031 19.734375 -11.78125 C 15.953125 -15.957031 13.242188 -20.515625 11.609375 -25.453125 C 9.984375 -30.398438 9.171875 -36.597656 9.171875 -44.046875 L 9.171875 -102.3125 L 31.203125 -102.3125 L 31.203125 -46.03125 C 31.203125 -42.050781 31.40625 -38.6875 31.8125 -35.9375 C 32.21875 -33.1875 32.953125 -30.84375 34.015625 -28.90625 C 35.085938 -26.96875 36.515625 -25.332031 38.296875 -24 C 40.085938 -22.675781 42.359375 -21.503906 45.109375 -20.484375 Z M 57.1875 -20.484375 C 59.945312 -21.410156 62.21875 -22.535156 64 -23.859375 C 65.78125 -25.179688 67.234375 -26.863281 68.359375 -28.90625 C 69.472656 -30.738281 70.234375 -32.898438 70.640625 -35.390625 C 71.054688 -37.890625 71.265625 -41.4375 71.265625 -46.03125 L 71.265625 -102.3125 L 93.28125 -102.3125 L 93.28125 -44.046875 C 93.28125 -36.597656 92.460938 -30.398438 90.828125 -25.453125 C 89.203125 -20.515625 86.503906 -15.957031 82.734375 -11.78125 C 79.367188 -8.101562 75.492188 -5.09375 71.109375 -2.75 C 66.722656 -0.40625 62.082031 1.171875 57.1875 1.984375 Z M 57.1875 -20.484375 "/></g></g></g><g fill="#2f3336" fill-opacity="1"><g transform="translate(908.136324, 796.124911)"><g><path d="M 28.296875 -69.890625 L 40.53125 -45.875 L 16.96875 0 L -7.640625 0 Z M 68.96875 -17.125 L 38.390625 -17.125 L 49.234375 -38.53125 L 57.953125 -38.53125 L 34.859375 -83.03125 L 47.25 -106.890625 L 102.453125 0 L 77.6875 0 Z M 68.96875 -17.125 "/></g></g></g><g fill="#2f3336" fill-opacity="1"><g transform="translate(1004.620172, 796.124911)"><g><path d="M 10.25 -60.25 L 32.265625 -40.984375 L 32.265625 0 L 10.25 0 Z M 10.25 -76.46875 L 10.25 -105.671875 L 78.453125 -45.265625 L 78.453125 -102.3125 L 100.46875 -102.3125 L 100.46875 3.21875 Z M 10.25 -76.46875 "/></g></g></g><g fill="#2f3336" fill-opacity="1"><g transform="translate(1115.324356, 796.124911)"><g><path d="M 20.484375 -68.359375 L 42.515625 -68.359375 L 42.515625 0 L 20.484375 0 Z M -3.0625 -102.3125 L 65.90625 -102.3125 L 65.90625 -80.890625 L -3.0625 -80.890625 Z M -3.0625 -102.3125 "/></g></g></g><g fill="#2f3336" fill-opacity="1"><g transform="translate(1178.168803, 796.124911)"><g><path d="M 45.109375 1.984375 C 40.117188 1.171875 35.476562 -0.429688 31.1875 -2.828125 C 26.90625 -5.222656 23.085938 -8.207031 19.734375 -11.78125 C 15.953125 -15.957031 13.242188 -20.515625 11.609375 -25.453125 C 9.984375 -30.398438 9.171875 -36.597656 9.171875 -44.046875 L 9.171875 -102.3125 L 31.203125 -102.3125 L 31.203125 -46.03125 C 31.203125 -42.050781 31.40625 -38.6875 31.8125 -35.9375 C 32.21875 -33.1875 32.953125 -30.84375 34.015625 -28.90625 C 35.085938 -26.96875 36.515625 -25.332031 38.296875 -24 C 40.085938 -22.675781 42.359375 -21.503906 45.109375 -20.484375 Z M 57.1875 -20.484375 C 59.945312 -21.410156 62.21875 -22.535156 64 -23.859375 C 65.78125 -25.179688 67.234375 -26.863281 68.359375 -28.90625 C 69.472656 -30.738281 70.234375 -32.898438 70.640625 -35.390625 C 71.054688 -37.890625 71.265625 -41.4375 71.265625 -46.03125 L 71.265625 -102.3125 L 93.28125 -102.3125 L 93.28125 -44.046875 C 93.28125 -36.597656 92.460938 -30.398438 90.828125 -25.453125 C 89.203125 -20.515625 86.503906 -15.957031 82.734375 -11.78125 C 79.367188 -8.101562 75.492188 -5.09375 71.109375 -2.75 C 66.722656 -0.40625 62.082031 1.171875 57.1875 1.984375 Z M 57.1875 -20.484375 "/></g></g></g><g fill="#2f3336" fill-opacity="1"><g transform="translate(1280.616029, 796.124911)"><g><path d="M 10.25 -61.9375 L 32.265625 -44.34375 L 32.265625 0 L 10.25 0 Z M 88.84375 -60.09375 L 60.40625 -37.3125 L 10.25 -77.84375 L 10.25 -105.96875 L 60.5625 -65.296875 L 110.875 -105.96875 L 110.875 0 L 88.84375 0 Z M 88.84375 -60.09375 "/></g></g></g></svg>