<svg xmlns="http://www.w3.org/2000/svg" xmlns:xlink="http://www.w3.org/1999/xlink" width="2000" zoomAndPan="magnify" viewBox="0 0 1500 1499.999933" height="2000" preserveAspectRatio="xMidYMid meet" version="1.0"><defs><g/></defs><g fill="#100d28" fill-opacity="1"><g transform="translate(79.428206, 809.99991)"><g><path d="M 89.859375 0 C 82.398438 0 75.875 -0.265625 70.28125 -0.796875 C 64.6875 -1.328125 59.628906 -2.257812 55.109375 -3.59375 C 50.585938 -4.925781 46.425781 -6.691406 42.625 -8.890625 C 38.832031 -11.085938 35.070312 -13.78125 31.34375 -16.96875 C 24.6875 -22.5625 19.492188 -28.75 15.765625 -35.53125 C 12.046875 -42.320312 9.453125 -50.113281 7.984375 -58.90625 L 36.9375 -58.90625 C 38.800781 -53.3125 41.03125 -48.648438 43.625 -44.921875 C 46.21875 -41.191406 49.644531 -38 53.90625 -35.34375 C 56.175781 -33.875 58.472656 -32.640625 60.796875 -31.640625 C 63.128906 -30.648438 65.859375 -29.882812 68.984375 -29.34375 C 72.109375 -28.8125 75.769531 -28.445312 79.96875 -28.25 C 84.164062 -28.050781 89.257812 -27.953125 95.25 -27.953125 L 143.765625 -27.953125 L 143.765625 0 Z M 107.21875 -44.328125 C 109.882812 -48.453125 111.847656 -52.378906 113.109375 -56.109375 C 114.378906 -59.835938 115.015625 -63.832031 115.015625 -68.09375 C 115.015625 -73.675781 113.984375 -78.894531 111.921875 -83.75 C 109.859375 -88.613281 107.023438 -92.84375 103.421875 -96.4375 C 99.828125 -100.03125 95.632812 -102.859375 90.84375 -104.921875 C 86.050781 -106.984375 80.925781 -108.015625 75.46875 -108.015625 C 70.414062 -108.015625 65.691406 -107.21875 61.296875 -105.625 C 56.898438 -104.03125 52.972656 -101.734375 49.515625 -98.734375 C 46.054688 -95.742188 43.160156 -92.179688 40.828125 -88.046875 C 38.503906 -83.921875 36.941406 -79.332031 36.140625 -74.28125 L 7.390625 -74.28125 C 8.316406 -83.332031 10.707031 -91.679688 14.5625 -99.328125 C 18.425781 -106.984375 23.382812 -113.570312 29.4375 -119.09375 C 35.5 -124.625 42.421875 -128.953125 50.203125 -132.078125 C 57.992188 -135.210938 66.351562 -136.78125 75.28125 -136.78125 C 84.726562 -136.78125 93.578125 -134.984375 101.828125 -131.390625 C 110.085938 -127.796875 117.3125 -122.898438 123.5 -116.703125 C 129.6875 -110.515625 134.578125 -103.296875 138.171875 -95.046875 C 141.765625 -86.796875 143.5625 -77.941406 143.5625 -68.484375 C 143.5625 -64.222656 143.226562 -60.195312 142.5625 -56.40625 C 141.894531 -52.613281 140.832031 -48.585938 139.375 -44.328125 Z M 107.21875 -44.328125 "/></g></g></g><g fill="#100d28" fill-opacity="1"><g transform="translate(287.080688, 809.99991)"><g><path d="M 58.90625 2.59375 C 52.382812 1.53125 46.328125 -0.5625 40.734375 -3.6875 C 35.140625 -6.820312 30.144531 -10.71875 25.75 -15.375 C 20.832031 -20.832031 17.304688 -26.785156 15.171875 -33.234375 C 13.046875 -39.691406 11.984375 -47.78125 11.984375 -57.5 L 11.984375 -133.578125 L 40.734375 -133.578125 L 40.734375 -60.09375 C 40.734375 -54.90625 41 -50.515625 41.53125 -46.921875 C 42.0625 -43.328125 43.023438 -40.265625 44.421875 -37.734375 C 45.828125 -35.203125 47.691406 -33.070312 50.015625 -31.34375 C 52.347656 -29.613281 55.3125 -28.082031 58.90625 -26.75 Z M 74.671875 -26.75 C 78.265625 -27.945312 81.226562 -29.410156 83.5625 -31.140625 C 85.894531 -32.878906 87.789062 -35.078125 89.25 -37.734375 C 90.71875 -40.128906 91.71875 -42.957031 92.25 -46.21875 C 92.78125 -49.476562 93.046875 -54.101562 93.046875 -60.09375 L 93.046875 -133.578125 L 121.796875 -133.578125 L 121.796875 -57.5 C 121.796875 -47.78125 120.726562 -39.691406 118.59375 -33.234375 C 116.46875 -26.785156 112.941406 -20.832031 108.015625 -15.375 C 103.628906 -10.582031 98.570312 -6.65625 92.84375 -3.59375 C 87.125 -0.53125 81.066406 1.53125 74.671875 2.59375 Z M 74.671875 -26.75 "/></g></g></g><g fill="#100d28" fill-opacity="1"><g transform="translate(480.756637, 809.99991)"><g><path d="M 36.9375 -91.25 L 52.90625 -59.90625 L 22.15625 0 L -9.984375 0 Z M 90.046875 -22.359375 L 50.125 -22.359375 L 64.296875 -50.3125 L 75.671875 -50.3125 L 45.53125 -108.421875 L 61.703125 -139.578125 L 133.78125 0 L 101.4375 0 Z M 90.046875 -22.359375 "/></g></g></g><g fill="#100d28" fill-opacity="1"><g transform="translate(666.645613, 809.99991)"><g><path d="M 13.375 -78.671875 L 42.125 -53.515625 L 42.125 0 L 13.375 0 Z M 13.375 -99.84375 L 13.375 -137.96875 L 102.4375 -59.109375 L 102.4375 -133.578125 L 131.1875 -133.578125 L 131.1875 4.1875 Z M 13.375 -99.84375 "/></g></g></g><g fill="#100d28" fill-opacity="1"><g transform="translate(871.103403, 809.99991)"><g><path d="M 26.75 -89.25 L 55.515625 -89.25 L 55.515625 0 L 26.75 0 Z M -4 -133.578125 L 86.0625 -133.578125 L 86.0625 -105.625 L -4 -105.625 Z M -4 -133.578125 "/></g></g></g><g fill="#100d28" fill-opacity="1"><g transform="translate(1013.066158, 809.99991)"><g><path d="M 58.90625 2.59375 C 52.382812 1.53125 46.328125 -0.5625 40.734375 -3.6875 C 35.140625 -6.820312 30.144531 -10.71875 25.75 -15.375 C 20.832031 -20.832031 17.304688 -26.785156 15.171875 -33.234375 C 13.046875 -39.691406 11.984375 -47.78125 11.984375 -57.5 L 11.984375 -133.578125 L 40.734375 -133.578125 L 40.734375 -60.09375 C 40.734375 -54.90625 41 -50.515625 41.53125 -46.921875 C 42.0625 -43.328125 43.023438 -40.265625 44.421875 -37.734375 C 45.828125 -35.203125 47.691406 -33.070312 50.015625 -31.34375 C 52.347656 -29.613281 55.3125 -28.082031 58.90625 -26.75 Z M 74.671875 -26.75 C 78.265625 -27.945312 81.226562 -29.410156 83.5625 -31.140625 C 85.894531 -32.878906 87.789062 -35.078125 89.25 -37.734375 C 90.71875 -40.128906 91.71875 -42.957031 92.25 -46.21875 C 92.78125 -49.476562 93.046875 -54.101562 93.046875 -60.09375 L 93.046875 -133.578125 L 121.796875 -133.578125 L 121.796875 -57.5 C 121.796875 -47.78125 120.726562 -39.691406 118.59375 -33.234375 C 116.46875 -26.785156 112.941406 -20.832031 108.015625 -15.375 C 103.628906 -10.582031 98.570312 -6.65625 92.84375 -3.59375 C 87.125 -0.53125 81.066406 1.53125 74.671875 2.59375 Z M 74.671875 -26.75 "/></g></g></g><g fill="#100d28" fill-opacity="1"><g transform="translate(1206.742107, 809.99991)"><g><path d="M 13.375 -80.859375 L 42.125 -57.90625 L 42.125 0 L 13.375 0 Z M 116.015625 -78.46875 L 78.875 -48.71875 L 13.375 -101.640625 L 13.375 -138.375 L 79.0625 -85.265625 L 144.765625 -138.375 L 144.765625 0 L 116.015625 0 Z M 116.015625 -78.46875 "/></g></g></g></svg>