<svg xmlns="http://www.w3.org/2000/svg" xmlns:xlink="http://www.w3.org/1999/xlink" width="2000" zoomAndPan="magnify" viewBox="0 0 1500 1499.999933" height="2000" preserveAspectRatio="xMidYMid meet" version="1.0"><defs><clipPath id="4267353cd2"><path d="M 249 547 L 1273 547 L 1273 1202.722656 L 249 1202.722656 Z M 249 547 " clip-rule="nonzero"/></clipPath><clipPath id="7561a7d13f"><path d="M 322 297.472656 L 1155 297.472656 L 1155 953 L 322 953 Z M 322 297.472656 " clip-rule="nonzero"/></clipPath></defs><rect x="-150" width="1800" fill="#ffffff" y="-149.999993" height="1799.99992" fill-opacity="1"/><rect x="-150" width="1800" fill="#ffffff" y="-149.999993" height="1799.99992" fill-opacity="1"/><g clip-path="url(#4267353cd2)"><path fill="#050deb" d="M 297.238281 547.414062 L 562.167969 547.414062 C 559.496094 549.261719 556.855469 551.160156 554.257812 553.113281 C 551.65625 555.0625 549.097656 557.066406 546.574219 559.121094 C 544.054688 561.171875 541.574219 563.277344 539.136719 565.425781 C 536.699219 567.578125 534.308594 569.777344 531.957031 572.023438 C 529.605469 574.269531 527.300781 576.5625 525.042969 578.902344 C 522.785156 581.238281 520.570312 583.621094 518.40625 586.046875 C 516.242188 588.472656 514.125 590.941406 512.058594 593.449219 C 509.992188 595.960938 507.976562 598.507812 506.007812 601.097656 C 504.042969 603.6875 502.128906 606.316406 500.269531 608.980469 C 498.40625 611.648438 496.597656 614.347656 494.84375 617.085938 C 493.089844 619.824219 491.390625 622.59375 489.746094 625.398438 C 488.101562 628.203125 486.511719 631.039062 484.980469 633.90625 C 483.445312 636.773438 481.972656 639.671875 480.554688 642.597656 C 479.136719 645.523438 477.777344 648.476562 476.476562 651.453125 C 475.175781 654.433594 473.9375 657.4375 472.753906 660.46875 C 471.574219 663.496094 470.453125 666.546875 469.394531 669.621094 C 468.332031 672.695312 467.332031 675.789062 466.394531 678.902344 C 465.457031 682.015625 464.582031 685.144531 463.769531 688.292969 C 462.957031 691.441406 462.203125 694.605469 461.515625 697.78125 C 460.828125 700.957031 460.203125 704.148438 459.640625 707.351562 C 459.082031 710.554688 458.582031 713.765625 458.148438 716.988281 C 457.714844 720.210938 457.34375 723.4375 457.039062 726.675781 C 456.730469 729.914062 456.488281 733.15625 456.3125 736.402344 C 456.132812 739.648438 456.019531 742.894531 455.972656 746.148438 C 455.921875 749.398438 455.9375 752.648438 456.019531 755.898438 C 456.097656 759.148438 456.242188 762.394531 456.449219 765.640625 C 456.660156 768.886719 456.933594 772.125 457.269531 775.359375 C 457.605469 778.589844 458.007812 781.816406 458.472656 785.035156 C 458.9375 788.253906 459.464844 791.460938 460.058594 794.65625 C 460.652344 797.855469 461.304688 801.039062 462.023438 804.207031 C 462.742188 807.378906 463.523438 810.535156 464.367188 813.675781 C 465.210938 816.816406 466.117188 819.9375 467.082031 823.039062 C 468.050781 826.144531 469.078125 829.226562 470.167969 832.292969 C 471.257812 835.355469 472.410156 838.394531 473.617188 841.414062 C 474.828125 844.429688 476.097656 847.421875 477.425781 850.390625 C 478.757812 853.355469 480.144531 856.296875 481.589844 859.210938 C 483.035156 862.121094 484.535156 865.003906 486.097656 867.855469 C 487.65625 870.710938 489.269531 873.53125 490.941406 876.320312 C 492.613281 879.109375 494.339844 881.863281 496.121094 884.582031 C 497.902344 887.304688 499.734375 889.988281 501.621094 892.632812 C 503.507812 895.28125 505.449219 897.890625 507.4375 900.460938 C 509.429688 903.03125 511.46875 905.5625 513.5625 908.050781 C 515.652344 910.542969 517.789062 912.988281 519.980469 915.394531 C 522.167969 917.800781 524.402344 920.160156 526.683594 922.476562 C 528.964844 924.792969 531.289062 927.0625 533.664062 929.285156 C 536.035156 931.511719 538.449219 933.6875 540.90625 935.816406 C 543.363281 937.945312 545.863281 940.023438 548.402344 942.050781 C 550.941406 944.082031 553.523438 946.058594 556.140625 947.988281 C 558.761719 949.914062 561.414062 951.789062 564.109375 953.609375 C 566.800781 955.429688 569.53125 957.199219 572.292969 958.914062 C 575.054688 960.625 577.851562 962.285156 580.679688 963.886719 C 583.507812 965.488281 586.367188 967.035156 589.257812 968.523438 C 592.148438 970.015625 595.066406 971.445312 598.011719 972.820312 C 600.960938 974.191406 603.933594 975.507812 606.933594 976.761719 C 609.929688 978.019531 612.953125 979.214844 616 980.351562 C 619.046875 981.488281 622.113281 982.5625 625.203125 983.574219 C 628.292969 984.589844 631.398438 985.542969 634.527344 986.433594 C 637.652344 987.324219 640.796875 988.152344 643.957031 988.921875 C 647.117188 989.6875 650.289062 990.390625 653.476562 991.03125 C 656.664062 991.671875 659.863281 992.25 663.074219 992.761719 C 666.285156 993.277344 669.503906 993.726562 672.730469 994.113281 C 675.960938 994.5 679.195312 994.820312 682.433594 995.078125 C 685.675781 995.335938 688.921875 995.53125 692.167969 995.660156 C 695.417969 995.789062 698.667969 995.851562 701.917969 995.851562 L 1081.664062 995.851562 L 1081.296875 996.398438 C 1084.507812 996.636719 1087.710938 996.949219 1090.90625 997.339844 C 1094.101562 997.726562 1097.289062 998.1875 1100.460938 998.726562 C 1103.636719 999.261719 1106.796875 999.871094 1109.945312 1000.558594 C 1113.089844 1001.242188 1116.21875 1002 1119.328125 1002.828125 C 1122.441406 1003.660156 1125.53125 1004.5625 1128.597656 1005.539062 C 1131.667969 1006.515625 1134.710938 1007.5625 1137.730469 1008.679688 C 1140.75 1009.796875 1143.742188 1010.984375 1146.703125 1012.242188 C 1149.667969 1013.5 1152.601562 1014.828125 1155.503906 1016.222656 C 1158.40625 1017.617188 1161.273438 1019.082031 1164.105469 1020.609375 C 1166.9375 1022.140625 1169.734375 1023.734375 1172.496094 1025.394531 C 1175.253906 1027.054688 1177.972656 1028.777344 1180.648438 1030.566406 C 1183.328125 1032.351562 1185.960938 1034.199219 1188.554688 1036.113281 C 1191.144531 1038.023438 1193.691406 1039.992188 1196.191406 1042.023438 C 1198.691406 1044.050781 1201.140625 1046.136719 1203.542969 1048.28125 C 1205.945312 1050.425781 1208.296875 1052.625 1210.59375 1054.878906 C 1212.894531 1057.136719 1215.136719 1059.441406 1217.328125 1061.800781 C 1219.519531 1064.160156 1221.65625 1066.570312 1223.734375 1069.027344 C 1225.8125 1071.488281 1227.832031 1073.996094 1229.792969 1076.546875 C 1231.753906 1079.101562 1233.652344 1081.699219 1235.492188 1084.34375 C 1237.332031 1086.984375 1239.109375 1089.667969 1240.824219 1092.394531 C 1242.535156 1095.121094 1244.183594 1097.886719 1245.769531 1100.6875 C 1247.355469 1103.492188 1248.871094 1106.328125 1250.324219 1109.203125 C 1251.777344 1112.078125 1253.160156 1114.984375 1254.476562 1117.921875 C 1255.789062 1120.859375 1257.039062 1123.828125 1258.214844 1126.824219 C 1259.390625 1129.824219 1260.496094 1132.84375 1261.53125 1135.894531 C 1262.566406 1138.941406 1263.53125 1142.015625 1264.421875 1145.109375 C 1265.316406 1148.203125 1266.132812 1151.316406 1266.878906 1154.445312 C 1267.625 1157.578125 1268.296875 1160.726562 1268.898438 1163.890625 C 1269.496094 1167.054688 1270.019531 1170.230469 1270.472656 1173.417969 C 1270.921875 1176.605469 1271.296875 1179.804688 1271.597656 1183.007812 C 1271.898438 1186.214844 1272.125 1189.425781 1272.273438 1192.640625 C 1272.425781 1195.859375 1272.5 1199.074219 1272.5 1202.296875 L 701.917969 1202.296875 C 692.328125 1202.292969 682.746094 1201.984375 673.175781 1201.367188 C 663.605469 1200.753906 654.0625 1199.839844 644.546875 1198.617188 C 635.035156 1197.398438 625.570312 1195.878906 616.152344 1194.054688 C 606.738281 1192.234375 597.386719 1190.113281 588.105469 1187.699219 C 578.824219 1185.28125 569.628906 1182.574219 560.519531 1179.574219 C 551.410156 1176.570312 542.402344 1173.285156 533.503906 1169.710938 C 524.601562 1166.136719 515.824219 1162.285156 507.167969 1158.15625 C 498.511719 1154.023438 489.996094 1149.621094 481.621094 1144.949219 C 473.246094 1140.277344 465.027344 1135.339844 456.964844 1130.144531 C 448.902344 1124.949219 441.011719 1119.503906 433.296875 1113.808594 C 425.582031 1108.113281 418.054688 1102.175781 410.714844 1096 C 403.375 1089.824219 396.242188 1083.421875 389.308594 1076.792969 C 382.378906 1070.164062 375.664062 1063.320312 369.167969 1056.265625 C 362.667969 1049.210938 356.402344 1041.957031 350.367188 1034.5 C 344.332031 1027.046875 338.539062 1019.410156 332.992188 1011.585938 C 327.441406 1003.765625 322.144531 995.773438 317.101562 987.613281 C 312.0625 979.457031 307.285156 971.144531 302.769531 962.679688 C 298.257812 954.21875 294.015625 945.621094 290.050781 936.890625 C 286.082031 928.15625 282.398438 919.308594 278.992188 910.339844 C 275.589844 901.375 272.472656 892.308594 269.644531 883.144531 C 266.816406 873.976562 264.28125 864.734375 262.042969 855.40625 C 259.800781 846.082031 257.859375 836.695312 256.214844 827.242188 C 254.574219 817.792969 253.230469 808.304688 252.191406 798.769531 C 251.152344 789.234375 250.414062 779.675781 249.984375 770.09375 C 249.550781 760.511719 249.421875 750.925781 249.601562 741.335938 C 249.777344 731.746094 250.257812 722.171875 251.042969 712.613281 C 251.828125 703.054688 252.917969 693.53125 254.308594 684.042969 C 255.699219 674.550781 257.390625 665.117188 259.382812 655.734375 C 261.375 646.351562 263.660156 637.042969 266.242188 627.804688 C 268.828125 618.566406 271.699219 609.421875 274.863281 600.367188 C 278.027344 591.316406 281.476562 582.371094 285.210938 573.535156 C 288.945312 564.699219 292.953125 555.992188 297.238281 547.414062 Z M 297.238281 547.414062 " fill-opacity="1" fill-rule="evenodd"/></g><g clip-path="url(#7561a7d13f)"><path fill="#100d28" d="M 701.917969 297.472656 C 711.511719 297.476562 721.09375 297.785156 730.664062 298.398438 C 740.234375 299.007812 749.777344 299.925781 759.289062 301.144531 C 768.804688 302.363281 778.269531 303.886719 787.683594 305.707031 C 797.101562 307.527344 806.449219 309.644531 815.734375 312.0625 C 825.015625 314.476562 834.210938 317.183594 843.320312 320.183594 C 852.429688 323.183594 861.433594 326.472656 870.335938 330.042969 C 879.238281 333.617188 888.015625 337.46875 896.671875 341.601562 C 905.328125 345.730469 913.84375 350.132812 922.21875 354.804688 C 930.59375 359.476562 938.816406 364.410156 946.875 369.605469 C 954.9375 374.800781 962.828125 380.246094 970.542969 385.941406 C 978.261719 391.640625 985.789062 397.574219 993.128906 403.75 C 1000.464844 409.925781 1007.601562 416.328125 1014.53125 422.957031 C 1021.464844 429.585938 1028.179688 436.425781 1034.675781 443.480469 C 1041.171875 450.539062 1047.4375 457.792969 1053.472656 465.246094 C 1059.507812 472.699219 1065.300781 480.339844 1070.851562 488.160156 C 1076.402344 495.984375 1081.699219 503.972656 1086.738281 512.132812 C 1091.78125 520.292969 1096.558594 528.601562 1101.074219 537.066406 C 1105.585938 545.527344 1109.828125 554.125 1113.792969 562.855469 C 1117.761719 571.589844 1121.445312 580.4375 1124.851562 589.40625 C 1128.253906 598.371094 1131.371094 607.4375 1134.199219 616.601562 C 1137.027344 625.765625 1139.558594 635.011719 1141.800781 644.339844 C 1144.039062 653.664062 1145.980469 663.050781 1147.625 672.5 C 1149.269531 681.949219 1150.609375 691.441406 1151.648438 700.976562 C 1152.691406 710.511719 1153.425781 720.070312 1153.859375 729.648438 C 1154.289062 739.230469 1154.417969 748.816406 1154.238281 758.40625 C 1154.0625 767.996094 1153.582031 777.570312 1152.796875 787.128906 C 1152.007812 796.6875 1150.921875 806.210938 1149.527344 815.703125 C 1148.136719 825.191406 1146.445312 834.625 1144.453125 844.007812 C 1142.464844 853.390625 1140.175781 862.699219 1137.59375 871.9375 C 1135.007812 881.171875 1132.136719 890.320312 1128.96875 899.371094 C 1125.804688 908.425781 1122.355469 917.371094 1118.621094 926.207031 C 1114.890625 935.039062 1110.878906 943.746094 1106.59375 952.328125 L 841.675781 952.328125 C 844.351562 950.480469 846.988281 948.578125 849.589844 946.628906 C 852.191406 944.675781 854.75 942.671875 857.273438 940.621094 C 859.792969 938.566406 862.269531 936.464844 864.707031 934.3125 C 867.144531 932.160156 869.539062 929.960938 871.890625 927.714844 C 874.238281 925.46875 876.542969 923.175781 878.804688 920.835938 C 881.0625 918.5 883.277344 916.117188 885.441406 913.691406 C 887.605469 911.265625 889.722656 908.796875 891.789062 906.289062 C 893.855469 903.777344 895.871094 901.230469 897.835938 898.640625 C 899.804688 896.050781 901.71875 893.421875 903.578125 890.757812 C 905.441406 888.09375 907.25 885.390625 909.003906 882.652344 C 910.757812 879.917969 912.457031 877.144531 914.101562 874.339844 C 915.746094 871.535156 917.335938 868.699219 918.867188 865.832031 C 920.402344 862.964844 921.875 860.070312 923.292969 857.140625 C 924.710938 854.214844 926.070312 851.261719 927.371094 848.285156 C 928.671875 845.304688 929.910156 842.300781 931.09375 839.269531 C 932.273438 836.242188 933.394531 833.191406 934.453125 830.117188 C 935.515625 827.042969 936.511719 823.949219 937.453125 820.835938 C 938.390625 817.722656 939.265625 814.59375 940.078125 811.445312 C 940.890625 808.296875 941.640625 805.132812 942.332031 801.957031 C 943.019531 798.777344 943.644531 795.589844 944.203125 792.386719 C 944.765625 789.183594 945.265625 785.972656 945.699219 782.75 C 946.132812 779.527344 946.503906 776.296875 946.808594 773.0625 C 947.117188 769.824219 947.359375 766.582031 947.535156 763.335938 C 947.714844 760.089844 947.828125 756.839844 947.875 753.589844 C 947.925781 750.339844 947.910156 747.089844 947.828125 743.839844 C 947.75 740.589844 947.605469 737.339844 947.394531 734.097656 C 947.1875 730.851562 946.914062 727.613281 946.578125 724.378906 C 946.238281 721.144531 945.839844 717.917969 945.375 714.703125 C 944.90625 711.484375 944.378906 708.277344 943.789062 705.078125 C 943.195312 701.882812 942.539062 698.699219 941.820312 695.527344 C 941.101562 692.355469 940.320312 689.203125 939.476562 686.0625 C 938.632812 682.921875 937.730469 679.800781 936.761719 676.695312 C 935.792969 673.589844 934.765625 670.507812 933.675781 667.445312 C 932.585938 664.382812 931.4375 661.339844 930.226562 658.324219 C 929.015625 655.304688 927.746094 652.3125 926.417969 649.347656 C 925.089844 646.378906 923.703125 643.4375 922.257812 640.527344 C 920.8125 637.613281 919.308594 634.730469 917.75 631.878906 C 916.1875 629.027344 914.574219 626.207031 912.902344 623.417969 C 911.230469 620.628906 909.503906 617.875 907.722656 615.152344 C 905.941406 612.433594 904.109375 609.75 902.222656 607.101562 C 900.335938 604.453125 898.394531 601.84375 896.40625 599.273438 C 894.414062 596.703125 892.375 594.171875 890.28125 591.683594 C 888.191406 589.195312 886.050781 586.746094 883.863281 584.34375 C 881.675781 581.9375 879.441406 579.578125 877.160156 577.261719 C 874.878906 574.945312 872.550781 572.671875 870.179688 570.449219 C 867.808594 568.226562 865.394531 566.050781 862.9375 563.921875 C 860.480469 561.792969 857.980469 559.714844 855.441406 557.683594 C 852.898438 555.65625 850.320312 553.675781 847.699219 551.75 C 845.082031 549.824219 842.425781 547.949219 839.734375 546.128906 C 837.039062 544.304688 834.3125 542.539062 831.550781 540.824219 C 828.785156 539.109375 825.992188 537.453125 823.160156 535.851562 C 820.332031 534.246094 817.472656 532.703125 814.582031 531.210938 C 811.691406 529.722656 808.773438 528.292969 805.828125 526.917969 C 802.878906 525.542969 799.90625 524.230469 796.910156 522.972656 C 793.910156 521.71875 790.886719 520.523438 787.839844 519.386719 C 784.792969 518.25 781.726562 517.175781 778.636719 516.160156 C 775.546875 515.148438 772.441406 514.195312 769.3125 513.304688 C 766.1875 512.414062 763.042969 511.585938 759.882812 510.816406 C 756.722656 510.050781 753.550781 509.347656 750.363281 508.707031 C 747.175781 508.066406 743.976562 507.488281 740.765625 506.976562 C 737.554688 506.460938 734.335938 506.011719 731.109375 505.625 C 727.878906 505.242188 724.644531 504.917969 721.40625 504.660156 C 718.164062 504.402344 714.917969 504.210938 711.667969 504.082031 C 708.421875 503.953125 705.171875 503.886719 701.917969 503.886719 L 322.175781 503.886719 C 327.277344 496.003906 332.621094 488.285156 338.207031 480.734375 C 343.789062 473.183594 349.605469 465.8125 355.648438 458.625 C 361.691406 451.433594 367.953125 444.441406 374.433594 437.644531 C 380.910156 430.84375 387.597656 424.253906 394.484375 417.871094 C 401.375 411.492188 408.457031 405.328125 415.734375 399.390625 C 423.007812 393.449219 430.457031 387.742188 438.089844 382.265625 C 445.71875 376.789062 453.511719 371.554688 461.46875 366.566406 C 469.421875 361.574219 477.527344 356.835938 485.777344 352.351562 C 494.03125 347.867188 502.414062 343.644531 510.929688 339.679688 C 519.441406 335.71875 528.074219 332.023438 536.816406 328.601562 C 545.5625 325.175781 554.40625 322.027344 563.347656 319.152344 C 572.289062 316.277344 581.308594 313.6875 590.410156 311.375 C 599.515625 309.0625 608.679688 307.039062 617.910156 305.296875 C 627.136719 303.558594 636.414062 302.105469 645.730469 300.945312 C 655.050781 299.785156 664.398438 298.914062 673.773438 298.332031 C 683.144531 297.753906 692.527344 297.46875 701.917969 297.472656 Z M 701.917969 297.472656 " fill-opacity="1" fill-rule="evenodd"/></g></svg>