<svg xmlns="http://www.w3.org/2000/svg" xmlns:xlink="http://www.w3.org/1999/xlink" width="600" viewBox="380 320 720 760" height="600" preserveAspectRatio="xMidYMid meet" version="1.0"><defs><g/><clipPath id="af955f523a"><path d="M 463 486 L 1050 486 L 1050 861.136719 L 463 861.136719 Z M 463 486 " clip-rule="nonzero"/></clipPath><clipPath id="1c69335692"><path d="M 505 342.886719 L 982 342.886719 L 982 718 L 505 718 Z M 505 342.886719 " clip-rule="nonzero"/></clipPath></defs><g fill="#ffffff" fill-opacity="1"><g transform="translate(395.400293, 1029.820211)"><g><path d="M 68.8125 0 C 63.101562 0 58.109375 -0.203125 53.828125 -0.609375 C 49.546875 -1.015625 45.671875 -1.726562 42.203125 -2.75 C 38.734375 -3.769531 35.546875 -5.117188 32.640625 -6.796875 C 29.742188 -8.484375 26.867188 -10.550781 24.015625 -13 C 18.910156 -17.28125 14.929688 -22.019531 12.078125 -27.21875 C 9.222656 -32.414062 7.234375 -38.378906 6.109375 -45.109375 L 28.296875 -45.109375 C 29.722656 -40.828125 31.425781 -37.257812 33.40625 -34.40625 C 35.394531 -31.550781 38.019531 -29.101562 41.28125 -27.0625 C 43.019531 -25.945312 44.78125 -25.003906 46.5625 -24.234375 C 48.34375 -23.472656 50.429688 -22.890625 52.828125 -22.484375 C 55.222656 -22.078125 58.023438 -21.796875 61.234375 -21.640625 C 64.453125 -21.484375 68.351562 -21.40625 72.9375 -21.40625 L 110.109375 -21.40625 L 110.109375 0 Z M 82.125 -33.953125 C 84.15625 -37.109375 85.65625 -40.113281 86.625 -42.96875 C 87.59375 -45.820312 88.078125 -48.878906 88.078125 -52.140625 C 88.078125 -56.421875 87.285156 -60.421875 85.703125 -64.140625 C 84.128906 -67.867188 81.960938 -71.109375 79.203125 -73.859375 C 76.453125 -76.609375 73.242188 -78.773438 69.578125 -80.359375 C 65.910156 -81.941406 61.984375 -82.734375 57.796875 -82.734375 C 53.929688 -82.734375 50.316406 -82.117188 46.953125 -80.890625 C 43.585938 -79.671875 40.578125 -77.910156 37.921875 -75.609375 C 35.273438 -73.316406 33.054688 -70.59375 31.265625 -67.4375 C 29.484375 -64.28125 28.285156 -60.765625 27.671875 -56.890625 L 5.65625 -56.890625 C 6.375 -63.816406 8.207031 -70.210938 11.15625 -76.078125 C 14.113281 -81.941406 17.910156 -86.988281 22.546875 -91.21875 C 27.191406 -95.445312 32.492188 -98.757812 38.453125 -101.15625 C 44.421875 -103.550781 50.820312 -104.75 57.65625 -104.75 C 64.894531 -104.75 71.671875 -103.375 77.984375 -100.625 C 84.304688 -97.875 89.835938 -94.125 94.578125 -89.375 C 99.316406 -84.632812 103.0625 -79.101562 105.8125 -72.78125 C 108.570312 -66.46875 109.953125 -59.691406 109.953125 -52.453125 C 109.953125 -49.191406 109.695312 -46.109375 109.1875 -43.203125 C 108.675781 -40.296875 107.859375 -37.210938 106.734375 -33.953125 Z M 82.125 -33.953125 "/></g></g></g><g fill="#ffffff" fill-opacity="1"><g transform="translate(508.550948, 1029.820211)"><g><path d="M 45.109375 1.984375 C 40.117188 1.171875 35.476562 -0.429688 31.1875 -2.828125 C 26.90625 -5.222656 23.085938 -8.207031 19.734375 -11.78125 C 15.953125 -15.957031 13.242188 -20.515625 11.609375 -25.453125 C 9.984375 -30.398438 9.171875 -36.597656 9.171875 -44.046875 L 9.171875 -102.3125 L 31.203125 -102.3125 L 31.203125 -46.03125 C 31.203125 -42.050781 31.40625 -38.6875 31.8125 -35.9375 C 32.21875 -33.1875 32.953125 -30.84375 34.015625 -28.90625 C 35.085938 -26.96875 36.515625 -25.332031 38.296875 -24 C 40.085938 -22.675781 42.359375 -21.503906 45.109375 -20.484375 Z M 57.1875 -20.484375 C 59.945312 -21.410156 62.21875 -22.535156 64 -23.859375 C 65.78125 -25.179688 67.234375 -26.863281 68.359375 -28.90625 C 69.472656 -30.738281 70.234375 -32.898438 70.640625 -35.390625 C 71.054688 -37.890625 71.265625 -41.4375 71.265625 -46.03125 L 71.265625 -102.3125 L 93.28125 -102.3125 L 93.28125 -44.046875 C 93.28125 -36.597656 92.460938 -30.398438 90.828125 -25.453125 C 89.203125 -20.515625 86.503906 -15.957031 82.734375 -11.78125 C 79.367188 -8.101562 75.492188 -5.09375 71.109375 -2.75 C 66.722656 -0.40625 62.082031 1.171875 57.1875 1.984375 Z M 57.1875 -20.484375 "/></g></g></g><g fill="#ffffff" fill-opacity="1"><g transform="translate(610.998174, 1029.820211)"><g><path d="M 28.296875 -69.890625 L 40.53125 -45.875 L 16.96875 0 L -7.640625 0 Z M 68.96875 -17.125 L 38.390625 -17.125 L 49.234375 -38.53125 L 57.953125 -38.53125 L 34.859375 -83.03125 L 47.25 -106.890625 L 102.453125 0 L 77.6875 0 Z M 68.96875 -17.125 "/></g></g></g><g fill="#ffffff" fill-opacity="1"><g transform="translate(707.482023, 1029.820211)"><g><path d="M 10.25 -60.25 L 32.265625 -40.984375 L 32.265625 0 L 10.25 0 Z M 10.25 -76.46875 L 10.25 -105.671875 L 78.453125 -45.265625 L 78.453125 -102.3125 L 100.46875 -102.3125 L 100.46875 3.21875 Z M 10.25 -76.46875 "/></g></g></g><g fill="#ffffff" fill-opacity="1"><g transform="translate(818.186206, 1029.820211)"><g><path d="M 20.484375 -68.359375 L 42.515625 -68.359375 L 42.515625 0 L 20.484375 0 Z M -3.0625 -102.3125 L 65.90625 -102.3125 L 65.90625 -80.890625 L -3.0625 -80.890625 Z M -3.0625 -102.3125 "/></g></g></g><g fill="#ffffff" fill-opacity="1"><g transform="translate(881.030653, 1029.820211)"><g><path d="M 45.109375 1.984375 C 40.117188 1.171875 35.476562 -0.429688 31.1875 -2.828125 C 26.90625 -5.222656 23.085938 -8.207031 19.734375 -11.78125 C 15.953125 -15.957031 13.242188 -20.515625 11.609375 -25.453125 C 9.984375 -30.398438 9.171875 -36.597656 9.171875 -44.046875 L 9.171875 -102.3125 L 31.203125 -102.3125 L 31.203125 -46.03125 C 31.203125 -42.050781 31.40625 -38.6875 31.8125 -35.9375 C 32.21875 -33.1875 32.953125 -30.84375 34.015625 -28.90625 C 35.085938 -26.96875 36.515625 -25.332031 38.296875 -24 C 40.085938 -22.675781 42.359375 -21.503906 45.109375 -20.484375 Z M 57.1875 -20.484375 C 59.945312 -21.410156 62.21875 -22.535156 64 -23.859375 C 65.78125 -25.179688 67.234375 -26.863281 68.359375 -28.90625 C 69.472656 -30.738281 70.234375 -32.898438 70.640625 -35.390625 C 71.054688 -37.890625 71.265625 -41.4375 71.265625 -46.03125 L 71.265625 -102.3125 L 93.28125 -102.3125 L 93.28125 -44.046875 C 93.28125 -36.597656 92.460938 -30.398438 90.828125 -25.453125 C 89.203125 -20.515625 86.503906 -15.957031 82.734375 -11.78125 C 79.367188 -8.101562 75.492188 -5.09375 71.109375 -2.75 C 66.722656 -0.40625 62.082031 1.171875 57.1875 1.984375 Z M 57.1875 -20.484375 "/></g></g></g><g fill="#ffffff" fill-opacity="1"><g transform="translate(983.477879, 1029.820211)"><g><path d="M 10.25 -61.9375 L 32.265625 -44.34375 L 32.265625 0 L 10.25 0 Z M 88.84375 -60.09375 L 60.40625 -37.3125 L 10.25 -77.84375 L 10.25 -105.96875 L 60.5625 -65.296875 L 110.875 -105.96875 L 110.875 0 L 88.84375 0 Z M 88.84375 -60.09375 "/></g></g></g><g fill="#ffffff" fill-opacity="1"><g transform="translate(486.096115, 1131.603387)"><g><path d="M 6.171875 -37.296875 L 19.4375 -26.71875 L 19.4375 0 L 6.171875 0 Z M 53.515625 -36.203125 L 36.390625 -22.46875 L 6.171875 -46.890625 L 6.171875 -63.828125 L 36.46875 -39.328125 L 66.78125 -63.828125 L 66.78125 0 L 53.515625 0 Z M 53.515625 -36.203125 "/></g></g></g><g fill="#ffffff" fill-opacity="1"><g transform="translate(594.235232, 1131.603387)"><g><path d="M 17.046875 -42.09375 L 24.40625 -27.640625 L 10.21875 0 L -4.609375 0 Z M 41.546875 -10.3125 L 23.125 -10.3125 L 29.65625 -23.21875 L 34.90625 -23.21875 L 21 -50.015625 L 28.46875 -64.390625 L 61.71875 0 L 46.796875 0 Z M 41.546875 -10.3125 "/></g></g></g><g fill="#ffffff" fill-opacity="1"><g transform="translate(687.544752, 1131.603387)"><g><path d="M 6.171875 -61.625 L 19.4375 -61.625 L 19.4375 0 L 6.171875 0 Z M 21.828125 -30.765625 L 29.84375 -42 L 60.890625 0 L 44.578125 0 Z M 34.453125 -48.359375 L 44.03125 -61.625 L 60.234375 -61.625 L 42.640625 -37.296875 Z M 34.453125 -48.359375 "/></g></g></g><g fill="#ffffff" fill-opacity="1"><g transform="translate(780.30158, 1131.603387)"><g><path d="M 6.171875 -61.625 L 19.4375 -61.625 L 19.4375 0 L 6.171875 0 Z M 6.171875 -61.625 "/></g></g></g><g fill="#ffffff" fill-opacity="1"><g transform="translate(841.004379, 1131.603387)"><g><path d="M 6.171875 -36.296875 L 19.4375 -24.6875 L 19.4375 0 L 6.171875 0 Z M 6.171875 -46.0625 L 6.171875 -63.640625 L 47.25 -27.265625 L 47.25 -61.625 L 60.515625 -61.625 L 60.515625 1.9375 Z M 6.171875 -46.0625 "/></g></g></g><g fill="#ffffff" fill-opacity="1"><g transform="translate(942.880042, 1131.603387)"><g><path d="M 64.9375 -16.765625 C 63.519531 -13.878906 61.796875 -11.300781 59.765625 -9.03125 C 57.742188 -6.757812 55.472656 -4.820312 52.953125 -3.21875 C 50.441406 -1.625 47.742188 -0.398438 44.859375 0.453125 C 41.972656 1.316406 38.960938 1.75 35.828125 1.75 C 31.347656 1.75 27.140625 0.90625 23.203125 -0.78125 C 19.273438 -2.46875 15.835938 -4.785156 12.890625 -7.734375 C 9.941406 -10.679688 7.625 -14.117188 5.9375 -18.046875 C 4.25 -21.984375 3.40625 -26.191406 3.40625 -30.671875 C 3.40625 -35.148438 4.25 -39.351562 5.9375 -43.28125 C 7.625 -47.21875 9.925781 -50.660156 12.84375 -53.609375 C 15.757812 -56.554688 19.179688 -58.875 23.109375 -60.5625 C 27.046875 -62.25 31.285156 -63.09375 35.828125 -63.09375 C 44.859375 -63.09375 52.628906 -59.773438 59.140625 -53.140625 L 49.46875 -43.9375 C 47.25 -46.019531 45.082031 -47.503906 42.96875 -48.390625 C 40.851562 -49.285156 38.472656 -49.734375 35.828125 -49.734375 C 33.128906 -49.734375 30.613281 -49.242188 28.28125 -48.265625 C 25.945312 -47.285156 23.90625 -45.9375 22.15625 -44.21875 C 20.40625 -42.5 19.035156 -40.472656 18.046875 -38.140625 C 17.066406 -35.804688 16.578125 -33.316406 16.578125 -30.671875 C 16.578125 -28.035156 17.082031 -25.550781 18.09375 -23.21875 C 19.113281 -20.882812 20.484375 -18.84375 22.203125 -17.09375 C 23.921875 -15.34375 25.945312 -13.957031 28.28125 -12.9375 C 30.613281 -11.925781 33.097656 -11.421875 35.734375 -11.421875 C 40.835938 -11.421875 45.226562 -13.203125 48.90625 -16.765625 Z M 35.828125 -37.03125 L 67.328125 -37.03125 C 67.578125 -35.738281 67.75 -34.628906 67.84375 -33.703125 C 67.9375 -32.785156 67.984375 -31.742188 67.984375 -30.578125 C 67.984375 -29.410156 67.9375 -28.363281 67.84375 -27.4375 C 67.75 -26.519531 67.578125 -25.414062 67.328125 -24.125 L 35.828125 -24.125 Z M 35.828125 -37.03125 "/></g></g></g><g clip-path="url(#af955f523a)"><path fill="#050deb" d="M 490.742188 486.007812 L 642.445312 486.007812 C 639.378906 488.125 636.402344 490.359375 633.515625 492.710938 C 630.628906 495.0625 627.835938 497.527344 625.144531 500.101562 C 622.453125 502.675781 619.867188 505.351562 617.386719 508.128906 C 614.90625 510.910156 612.539062 513.78125 610.285156 516.75 C 608.035156 519.714844 605.902344 522.765625 603.894531 525.902344 C 601.882812 529.039062 600 532.25 598.242188 535.535156 C 596.488281 538.820312 594.867188 542.171875 593.375 545.582031 C 591.886719 548.996094 590.535156 552.464844 589.320312 555.988281 C 588.105469 559.507812 587.03125 563.070312 586.097656 566.679688 C 585.167969 570.285156 584.378906 573.921875 583.734375 577.589844 C 583.09375 581.261719 582.59375 584.949219 582.242188 588.65625 C 581.894531 592.367188 581.691406 596.082031 581.632812 599.804688 C 581.578125 603.53125 581.667969 607.25 581.90625 610.96875 C 582.148438 614.6875 582.53125 618.386719 583.066406 622.074219 C 583.597656 625.761719 584.277344 629.421875 585.101562 633.054688 C 585.921875 636.6875 586.886719 640.28125 587.996094 643.835938 C 589.105469 647.394531 590.351562 650.898438 591.738281 654.359375 C 593.125 657.816406 594.644531 661.210938 596.300781 664.546875 C 597.957031 667.886719 599.742188 671.152344 601.660156 674.347656 C 603.574219 677.539062 605.613281 680.65625 607.773438 683.6875 C 609.9375 686.722656 612.214844 689.664062 614.609375 692.515625 C 617.003906 695.371094 619.511719 698.121094 622.125 700.777344 C 624.738281 703.429688 627.453125 705.976562 630.269531 708.414062 C 633.085938 710.851562 635.992188 713.175781 638.992188 715.382812 C 641.992188 717.589844 645.074219 719.675781 648.242188 721.640625 C 651.40625 723.601562 654.644531 725.4375 657.957031 727.144531 C 661.265625 728.851562 664.640625 730.421875 668.078125 731.863281 C 671.511719 733.300781 675 734.601562 678.539062 735.761719 C 682.078125 736.925781 685.65625 737.945312 689.277344 738.824219 C 692.898438 739.703125 696.546875 740.433594 700.222656 741.023438 C 703.902344 741.613281 707.597656 742.054688 711.3125 742.347656 C 715.023438 742.644531 718.742188 742.792969 722.46875 742.792969 L 939.917969 742.792969 L 939.707031 743.105469 C 941.542969 743.242188 943.378906 743.421875 945.210938 743.644531 C 947.039062 743.867188 948.863281 744.128906 950.683594 744.4375 C 952.5 744.746094 954.308594 745.09375 956.109375 745.488281 C 957.914062 745.878906 959.703125 746.3125 961.484375 746.789062 C 963.265625 747.265625 965.035156 747.78125 966.792969 748.339844 C 968.550781 748.898438 970.292969 749.496094 972.023438 750.136719 C 973.75 750.777344 975.464844 751.457031 977.160156 752.179688 C 978.859375 752.898438 980.539062 753.660156 982.199219 754.457031 C 983.859375 755.257812 985.503906 756.09375 987.125 756.96875 C 988.746094 757.84375 990.347656 758.757812 991.929688 759.707031 C 993.507812 760.660156 995.066406 761.644531 996.597656 762.667969 C 998.132812 763.691406 999.640625 764.75 1001.125 765.847656 C 1002.609375 766.941406 1004.066406 768.066406 1005.496094 769.230469 C 1006.929688 770.390625 1008.332031 771.585938 1009.707031 772.816406 C 1011.082031 774.042969 1012.429688 775.300781 1013.746094 776.59375 C 1015.0625 777.882812 1016.347656 779.207031 1017.601562 780.554688 C 1018.855469 781.90625 1020.078125 783.285156 1021.269531 784.695312 C 1022.460938 786.101562 1023.617188 787.539062 1024.738281 789 C 1025.859375 790.464844 1026.949219 791.949219 1028.003906 793.464844 C 1029.054688 794.976562 1030.074219 796.515625 1031.054688 798.074219 C 1032.035156 799.636719 1032.980469 801.21875 1033.886719 802.824219 C 1034.796875 804.429688 1035.664062 806.054688 1036.496094 807.699219 C 1037.328125 809.34375 1038.121094 811.007812 1038.871094 812.691406 C 1039.625 814.375 1040.339844 816.074219 1041.011719 817.789062 C 1041.6875 819.507812 1042.320312 821.238281 1042.914062 822.984375 C 1043.507812 824.730469 1044.058594 826.488281 1044.570312 828.257812 C 1045.078125 830.03125 1045.546875 831.8125 1045.976562 833.605469 C 1046.402344 835.402344 1046.789062 837.203125 1047.132812 839.015625 C 1047.472656 840.828125 1047.773438 842.644531 1048.03125 844.46875 C 1048.289062 846.296875 1048.503906 848.125 1048.675781 849.960938 C 1048.847656 851.796875 1048.976562 853.636719 1049.066406 855.476562 C 1049.152344 857.320312 1049.195312 859.164062 1049.195312 861.007812 L 722.46875 861.007812 C 716.976562 861.003906 711.488281 860.828125 706.007812 860.476562 C 700.527344 860.125 695.0625 859.597656 689.617188 858.902344 C 684.167969 858.203125 678.75 857.332031 673.355469 856.289062 C 667.964844 855.246094 662.613281 854.03125 657.296875 852.648438 C 651.980469 851.265625 646.714844 849.714844 641.5 847.996094 C 636.28125 846.277344 631.125 844.394531 626.03125 842.347656 C 620.933594 840.300781 615.90625 838.097656 610.949219 835.730469 C 605.992188 833.363281 601.117188 830.84375 596.320312 828.167969 C 591.523438 825.492188 586.820312 822.667969 582.203125 819.691406 C 577.585938 816.71875 573.066406 813.597656 568.648438 810.335938 C 564.230469 807.074219 559.921875 803.675781 555.71875 800.140625 C 551.515625 796.601562 547.429688 792.9375 543.460938 789.140625 C 539.492188 785.34375 535.648438 781.425781 531.925781 777.386719 C 528.207031 773.347656 524.617188 769.191406 521.164062 764.925781 C 517.707031 760.65625 514.390625 756.28125 511.210938 751.800781 C 508.035156 747.324219 505 742.746094 502.113281 738.074219 C 499.226562 733.402344 496.492188 728.644531 493.90625 723.796875 C 491.324219 718.953125 488.894531 714.03125 486.625 709.027344 C 484.351562 704.027344 482.242188 698.960938 480.292969 693.828125 C 478.34375 688.691406 476.558594 683.5 474.9375 678.253906 C 473.320312 673.003906 471.867188 667.710938 470.585938 662.371094 C 469.304688 657.03125 468.191406 651.65625 467.25 646.246094 C 466.308594 640.832031 465.539062 635.398438 464.945312 629.9375 C 464.347656 624.480469 463.929688 619.003906 463.679688 613.519531 C 463.433594 608.03125 463.359375 602.542969 463.460938 597.050781 C 463.5625 591.5625 463.839844 586.078125 464.289062 580.605469 C 464.738281 575.132812 465.359375 569.679688 466.15625 564.242188 C 466.953125 558.808594 467.921875 553.40625 469.0625 548.035156 C 470.203125 542.660156 471.511719 537.332031 472.992188 532.042969 C 474.472656 526.753906 476.117188 521.515625 477.929688 516.332031 C 479.738281 511.144531 481.714844 506.023438 483.851562 500.964844 C 485.988281 495.90625 488.285156 490.921875 490.742188 486.007812 Z M 490.742188 486.007812 " fill-opacity="1" fill-rule="evenodd"/></g><g clip-path="url(#1c69335692)"><path fill="#ffffff" d="M 722.46875 342.886719 C 727.960938 342.886719 733.445312 343.066406 738.925781 343.414062 C 744.410156 343.765625 749.871094 344.292969 755.320312 344.988281 C 760.769531 345.6875 766.1875 346.558594 771.578125 347.601562 C 776.972656 348.644531 782.324219 349.855469 787.640625 351.242188 C 792.957031 352.625 798.222656 354.175781 803.4375 355.890625 C 808.652344 357.609375 813.808594 359.492188 818.90625 361.539062 C 824.003906 363.585938 829.03125 365.789062 833.988281 368.15625 C 838.945312 370.519531 843.820312 373.039062 848.617188 375.714844 C 853.414062 378.390625 858.117188 381.21875 862.734375 384.191406 C 867.351562 387.167969 871.871094 390.285156 876.289062 393.546875 C 880.707031 396.808594 885.015625 400.207031 889.21875 403.742188 C 893.421875 407.28125 897.507812 410.945312 901.476562 414.742188 C 905.445312 418.535156 909.289062 422.453125 913.011719 426.496094 C 916.730469 430.535156 920.320312 434.6875 923.777344 438.957031 C 927.230469 443.226562 930.546875 447.597656 933.726562 452.078125 C 936.90625 456.558594 939.9375 461.132812 942.824219 465.804688 C 945.710938 470.476562 948.445312 475.234375 951.03125 480.082031 C 953.617188 484.929688 956.042969 489.851562 958.316406 494.851562 C 960.585938 499.851562 962.699219 504.917969 964.648438 510.054688 C 966.597656 515.1875 968.378906 520.378906 970 525.625 C 971.617188 530.875 973.070312 536.167969 974.351562 541.507812 C 975.636719 546.847656 976.746094 552.222656 977.6875 557.636719 C 978.628906 563.046875 979.398438 568.480469 979.992188 573.941406 C 980.589844 579.402344 981.007812 584.875 981.257812 590.359375 C 981.503906 595.847656 981.578125 601.335938 981.476562 606.828125 C 981.375 612.316406 981.097656 617.800781 980.648438 623.273438 C 980.199219 628.746094 979.574219 634.199219 978.777344 639.636719 C 977.980469 645.070312 977.011719 650.472656 975.871094 655.84375 C 974.730469 661.214844 973.421875 666.546875 971.941406 671.835938 C 970.464844 677.125 968.816406 682.363281 967.007812 687.546875 C 965.195312 692.730469 963.21875 697.851562 961.082031 702.910156 C 958.941406 707.96875 956.648438 712.957031 954.191406 717.871094 L 802.496094 717.871094 C 805.5625 715.753906 808.539062 713.519531 811.425781 711.164062 C 814.3125 708.8125 817.105469 706.351562 819.796875 703.777344 C 822.488281 701.203125 825.074219 698.523438 827.554688 695.746094 C 830.035156 692.96875 832.402344 690.09375 834.65625 687.128906 C 836.90625 684.160156 839.039062 681.109375 841.046875 677.972656 C 843.058594 674.835938 844.941406 671.625 846.699219 668.339844 C 848.453125 665.054688 850.074219 661.707031 851.566406 658.292969 C 853.054688 654.878906 854.40625 651.410156 855.621094 647.890625 C 856.835938 644.367188 857.910156 640.804688 858.84375 637.199219 C 859.773438 633.589844 860.5625 629.953125 861.207031 626.285156 C 861.847656 622.613281 862.347656 618.925781 862.695312 615.21875 C 863.046875 611.507812 863.25 607.792969 863.308594 604.070312 C 863.363281 600.34375 863.273438 596.625 863.03125 592.90625 C 862.792969 589.1875 862.40625 585.488281 861.875 581.800781 C 861.339844 578.113281 860.664062 574.453125 859.839844 570.820312 C 859.015625 567.1875 858.050781 563.59375 856.945312 560.039062 C 855.835938 556.480469 854.585938 552.972656 853.203125 549.515625 C 851.816406 546.058594 850.292969 542.664062 848.636719 539.324219 C 846.980469 535.988281 845.195312 532.722656 843.28125 529.527344 C 841.367188 526.332031 839.328125 523.21875 837.164062 520.1875 C 835.003906 517.152344 832.722656 514.210938 830.328125 511.359375 C 827.933594 508.503906 825.429688 505.753906 822.816406 503.097656 C 820.199219 500.445312 817.484375 497.898438 814.667969 495.460938 C 811.855469 493.023438 808.945312 490.699219 805.945312 488.492188 C 802.945312 486.285156 799.863281 484.199219 796.695312 482.234375 C 793.53125 480.273438 790.292969 478.4375 786.980469 476.730469 C 783.671875 475.023438 780.296875 473.453125 776.859375 472.011719 C 773.425781 470.574219 769.9375 469.273438 766.398438 468.113281 C 762.859375 466.949219 759.28125 465.929688 755.660156 465.050781 C 752.039062 464.175781 748.390625 463.441406 744.710938 462.851562 C 741.035156 462.265625 737.339844 461.820312 733.625 461.527344 C 729.914062 461.230469 726.195312 461.082031 722.46875 461.082031 L 505.019531 461.082031 C 507.941406 456.570312 511 452.148438 514.199219 447.824219 C 517.394531 443.5 520.726562 439.28125 524.1875 435.164062 C 527.648438 431.046875 531.230469 427.042969 534.941406 423.152344 C 538.652344 419.257812 542.480469 415.484375 546.425781 411.832031 C 550.371094 408.175781 554.425781 404.648438 558.59375 401.246094 C 562.757812 397.84375 567.023438 394.574219 571.394531 391.441406 C 575.761719 388.304688 580.226562 385.308594 584.78125 382.449219 C 589.335938 379.59375 593.976562 376.878906 598.703125 374.3125 C 603.425781 371.742188 608.226562 369.324219 613.101562 367.054688 C 617.976562 364.785156 622.921875 362.671875 627.925781 360.710938 C 632.933594 358.75 638 356.945312 643.117188 355.300781 C 648.238281 353.65625 653.40625 352.171875 658.617188 350.847656 C 663.828125 349.523438 669.078125 348.363281 674.363281 347.367188 C 679.648438 346.371094 684.957031 345.539062 690.292969 344.875 C 695.628906 344.210938 700.984375 343.710938 706.351562 343.378906 C 711.71875 343.046875 717.089844 342.882812 722.46875 342.886719 Z M 722.46875 342.886719 " fill-opacity="1" fill-rule="evenodd"/></g></svg>